<?xml version="1.0" encoding="UTF-8"?>
<svg version="1.1" xmlns="http://www.w3.org/2000/svg" width="532" height="469">
<path d="M0 0 C7.40676057 -0.0698268 14.81344896 -0.12297582 22.22047329 -0.15543652 C25.66069184 -0.17102416 29.10068348 -0.19213408 32.54077148 -0.22631836 C36.50501697 -0.26546007 40.46917387 -0.27976629 44.43359375 -0.29296875 C45.65582138 -0.30845261 46.87804901 -0.32393646 48.13731384 -0.33988953 C58.52215074 -0.34191717 65.92335058 2.21413031 75 7 C75 7.66 75 8.32 75 9 C75.72832031 9.19980469 76.45664063 9.39960938 77.20703125 9.60546875 C80.83463241 11.41673254 82.53516624 14.00883268 84.6875 17.3125 C85.07744141 17.88162109 85.46738281 18.45074219 85.86914062 19.03710938 C92.28538488 28.59018416 93.17976262 39.05471127 91.69140625 50.33984375 C89.16260627 61.64111801 81.99232088 71.02756822 72.375 77.375 C57.21396316 85.26605296 41.72895032 84.49034334 25.0625 84.25 C22.62566578 84.22989705 20.18881548 84.21165302 17.75195312 84.1953125 C11.83427942 84.15163565 5.91721659 84.08502676 0 84 C0 82.68 0 81.36 0 80 C0.93972656 79.83564453 0.93972656 79.83564453 1.8984375 79.66796875 C2.71570313 79.50941406 3.53296875 79.35085938 4.375 79.1875 C5.18710938 79.03667969 5.99921875 78.88585937 6.8359375 78.73046875 C9.35820641 78.12455058 9.35820641 78.12455058 11 75 C11.31220474 72.00769655 11.31220474 72.00769655 11.2746582 68.55664062 C11.27976913 67.9075322 11.28488007 67.25842377 11.29014587 66.58964539 C11.30404045 64.44508635 11.30308549 62.30084868 11.30078125 60.15625 C11.30466785 58.66556682 11.30900245 57.17488474 11.31376648 55.6842041 C11.32122807 52.56042896 11.32093759 49.43676685 11.31567383 46.31298828 C11.30987473 42.30784725 11.32682066 38.30316799 11.3500185 34.29810333 C11.36474108 31.22004487 11.36562966 28.14209805 11.36250877 25.06401062 C11.36302259 23.58720484 11.36827159 22.1103929 11.37832069 20.63362122 C11.39064183 18.56989393 11.38392102 16.50707189 11.37231445 14.44335938 C11.37294388 13.26882202 11.3735733 12.09428467 11.3742218 10.88415527 C11.24138839 8.00355015 11.24138839 8.00355015 9.60441589 6.14294434 C7.69252721 4.78096435 6.10279349 4.30059533 3.8125 3.8125 C2.554375 3.544375 1.29625 3.27625 0 3 C0 2.01 0 1.02 0 0 Z M32.8125 5.9375 C31.93207031 6.11152344 31.05164063 6.28554687 30.14453125 6.46484375 C28.03179657 6.79658235 28.03179657 6.79658235 27 8 C26.90574405 10.14743549 26.88257352 12.29801026 26.88647461 14.44750977 C26.88632858 15.12065216 26.88618256 15.79379456 26.8860321 16.48733521 C26.88673122 18.72205784 26.89452348 20.9566981 26.90234375 23.19140625 C26.90420794 24.73697362 26.90563184 26.28254157 26.90663147 27.82810974 C26.9104566 31.90357077 26.92028683 35.97899637 26.93133545 40.05444336 C26.94154968 44.21011882 26.94612911 48.36579999 26.95117188 52.52148438 C26.96190911 60.68100587 26.97898546 68.84049853 27 77 C40.07983073 79.28580673 51.63692833 78.21609857 63 71 C70.48381753 64.35562208 74.58093407 56.3340785 75.23828125 46.3984375 C75.56822651 34.62990326 74.15632165 26.2563612 66.1875 17.0625 C58.9633033 9.67005417 52.16438416 6.89238182 42 5 C38.67408999 5 36.0359148 5.28519892 32.8125 5.9375 Z " fill="#111111" transform="translate(65,190)"/>
<path d="M0 0 C2.75496229 -0.45081201 5.13901905 -1.45655543 7.6875 -2.5625 C13.57968896 -4.78576089 18.67322437 -4.67042688 24.6875 -2.9375 C29.50988318 -0.11686078 33.1286682 2.85295454 34.6640625 8.3984375 C35.39771397 13.94347769 34.96353293 18.77720174 33 24 C32.57267578 25.13695312 32.57267578 25.13695312 32.13671875 26.296875 C28.72207602 34.09467731 23.15060367 40.22071761 17 46 C15.515 46.495 15.515 46.495 14 47 C13.67 47.99 13.34 48.98 13 50 C11.515 50.99 11.515 50.99 10 52 C9.67 52.99 9.34 53.98 9 55 C9.804375 55.2475 10.60875 55.495 11.4375 55.75 C15.74324143 57.26078647 19.85364007 59.10188856 24 61 C24.5775 60.360625 25.155 59.72125 25.75 59.0625 C29.4842258 55.63945969 32.8394317 55.7761959 37.84228516 55.79882812 C41.32606385 56.12363392 44.24613502 57.55141691 47.3125 59.125 C47.95912598 59.44339844 48.60575195 59.76179688 49.27197266 60.08984375 C51.19057394 61.04273798 53.09584507 62.01862392 55 63 C56.02222656 63.51304687 57.04445313 64.02609375 58.09765625 64.5546875 C64.15714974 67.70801041 70.04182268 71.24994371 75 76 C75 76.66 75 77.32 75 78 C75.66 78 76.32 78 77 78 C77 78.66 77 79.32 77 80 C77.66 80 78.32 80 79 80 C79 80.66 79 81.32 79 82 C79.66 82 80.32 82 81 82 C81.33 80.35 81.66 78.7 82 77 C83.8125 76.375 83.8125 76.375 86 76 C86.99 76.66 87.98 77.32 89 78 C88.75 81.3125 88.75 81.3125 88 85 C87.33871094 85.46535156 86.67742187 85.93070312 85.99609375 86.41015625 C83.76976512 87.84676963 83.76976512 87.84676963 83.42578125 90.4453125 C83.38839844 91.32960938 83.35101563 92.21390625 83.3125 93.125 C83.06870229 97.93129771 83.06870229 97.93129771 82 99 C79.5 99.125 79.5 99.125 77 99 C76.67 98.67 76.34 98.34 76 98 C76.28730055 95.66055264 76.61936779 93.3260857 77 91 C75.04513672 91.26490234 75.04513672 91.26490234 73.05078125 91.53515625 C68.32826455 92.05230087 63.90290722 91.94212687 59.1875 91.4375 C58.38578369 91.3537915 57.58406738 91.27008301 56.75805664 91.18383789 C46.85738691 89.97223421 35.97452258 87.48726129 27 83 C27 82.34 27 81.68 27 81 C25.515 80.505 25.515 80.505 24 80 C21.56935292 76.91494793 20.94470081 74.80922903 20.9375 71 C20.84552839 68.90339372 20.84552839 68.90339372 20 67 C16.92362419 64.71675233 13.52470052 63.4507463 10 62 C8.60032049 61.17314306 7.2040851 60.34040826 5.8125 59.5 C2.72092211 57.98801559 2.2752617 57.92589108 -1.25 58.875 C-2.51109091 59.56339366 -3.75931365 60.27547706 -5 61 C-6.99561896 62.0087145 -8.9960279 63.00798396 -11 64 C-12.54300781 64.79277344 -12.54300781 64.79277344 -14.1171875 65.6015625 C-16.45659452 66.7363968 -18.66277604 67.58173119 -21.125 68.375 C-24.06538952 69.65227052 -24.06538952 69.65227052 -24.7578125 71.78125 C-25.0862231 73.17829829 -25.37282673 74.58582701 -25.6171875 76 C-26.15522708 78.81098229 -27.27217394 80.74053516 -29 83 C-33.83314356 86.09844869 -39.47898817 85.62687275 -45 85 C-48.52121839 82.95769333 -49.75217677 81.37173484 -52 78 C-52.63778488 73.34752712 -53.08595557 68.27142101 -51.01953125 63.94921875 C-48.81124366 61.21094214 -46.38473155 58.96706616 -43 58 C-37.318582 57.54182113 -33.96438584 57.92680876 -29 61 C-28.34 61.66 -27.68 62.32 -27 63 C-22.51569973 62.67854478 -18.7885883 60.55154418 -14.875 58.5 C-8.3200188 55.10667293 -8.3200188 55.10667293 -5 54 C-5 53.34 -5 52.68 -5 52 C-5.58265625 51.731875 -6.1653125 51.46375 -6.765625 51.1875 C-9.02786601 49.98519009 -10.80576318 48.66174087 -12.75 47 C-13.36359375 46.484375 -13.9771875 45.96875 -14.609375 45.4375 C-16 44 -16 44 -16 42 C-16.5878125 41.76410156 -17.175625 41.52820313 -17.78125 41.28515625 C-23.63673802 37.89350914 -27.81323698 29.64620165 -30.33984375 23.48828125 C-31.99758923 17.23985597 -32.37484672 9.8503408 -29.4375 3.9375 C-21.44247599 -5.69752894 -10.42543563 -5.46094247 0 0 Z M-21 4 C-24.50073763 7.40861296 -25.90577842 10.10047808 -26 15 C-23.24312364 27.90608491 -14.90482008 38.73011995 -4 46 C-3.34 46 -2.68 46 -2 46 C-2 46.66 -2 47.32 -2 48 C0.27466965 48.80332569 0.27466965 48.80332569 3 49 C5.40568422 47.71614151 5.40568422 47.71614151 7.5625 45.75 C8.30628906 45.12609375 9.05007812 44.5021875 9.81640625 43.859375 C10.53699219 43.24578125 11.25757813 42.6321875 12 42 C12.75152344 41.46890625 13.50304687 40.9378125 14.27734375 40.390625 C14.84582031 39.93171875 15.41429687 39.4728125 16 39 C16 38.34 16 37.68 16 37 C16.66 37 17.32 37 18 37 C23.46723162 30.54974398 28.98966502 22.48819467 29.5 13.8125 C28.92372595 9.41841037 27.91896011 7.31341418 25 4 C21.08700456 1.67335407 17.48421565 1.60664775 13 2 C8.69156076 3.58227602 8.69156076 3.58227602 6 7 C5.95509079 8.68690231 5.96116137 10.375447 6 12.0625 C6.03777102 13.70789986 6.04642479 15.35482156 6 17 C5 18 5 18 1.5 18.125 C-2 18 -2 18 -3 17 C-3.07244053 14.98035801 -3.08377188 12.95832876 -3.0625 10.9375 C-3.05347656 9.83277344 -3.04445313 8.72804687 -3.03515625 7.58984375 C-3.02355469 6.73519531 -3.01195312 5.88054687 -3 5 C-10.12205907 1.19052654 -13.61657353 -0.02732353 -21 4 Z M26.5625 65.75 C25.70360861 69.18556555 26.10127532 71.58484621 27 75 C32.02487642 82.53731463 43.60477201 85.0626397 52 87 C60.51165723 88.40769716 69.53536812 88.83019068 78 87 C77.34 85.68 76.68 84.36 76 83 C75.34 83 74.68 83 74 83 C74 82.34 74 81.68 74 81 C73.34 81 72.68 81 72 81 C71.505 79.515 71.505 79.515 71 78 C61.23637411 70.05286265 49.13367272 62.23581375 36.4375 60.6875 C32.42736422 61.20161997 29.15793287 62.59034259 26.5625 65.75 Z " fill="#504F54" transform="translate(196,212)"/>
<path d="M0 0 C0.33 1.98 0.66 3.96 1 6 C1.5775 5.38125 2.155 4.7625 2.75 4.125 C7.33352938 -0.20388886 11.18194961 -0.38468332 17.3125 -0.24609375 C22.47996574 0.22708989 25.12305585 2.1026618 28.6875 5.75 C34.47446343 13.88302969 35.23510351 21.04888148 34 31 C31.29346423 39.24981865 27.48001973 44.43483774 20.30078125 49.10546875 C17.00272035 50.38773691 13.79525198 50.25046126 10.3125 50.1875 C9.27899414 50.1865332 9.27899414 50.1865332 8.22460938 50.18554688 C3.14055525 50.14055525 3.14055525 50.14055525 2 49 C1.67 51.31 1.34 53.62 1 56 C3.97 56 6.94 56 10 56 C11.4783226 58.95664519 11.06032783 61.74229737 11 65 C7.78548731 66.60725635 4.56387464 66.05748185 1 66 C0.95047294 70.34161825 0.91422046 74.68308575 0.89013672 79.02490234 C0.88009409 80.50116847 0.86645735 81.97741479 0.84912109 83.45361328 C0.82479579 85.57850034 0.8134996 87.70312385 0.8046875 89.828125 C0.79421387 91.1059082 0.78374023 92.38369141 0.77294922 93.70019531 C0.98449722 96.77469299 1.36873092 98.43738352 3 101 C5.41645782 101.16687448 5.41645782 101.16687448 8 101 C8.99 100.01 8.99 100.01 10 99 C11.32 99 12.64 99 14 99 C12.60466338 103.43970742 10.43871468 105.90515679 7 109 C3.79826746 110.60086627 0.47422941 110.49917089 -3 110 C-5.8100346 108.20636089 -7.50940468 106.98119065 -9 104 C-9.16731677 101.7596912 -9.27389588 99.51473643 -9.3515625 97.26953125 C-9.37471527 96.60088547 -9.39786804 95.93223969 -9.42172241 95.24333191 C-9.46937563 93.82530301 -9.51460807 92.40719102 -9.55761719 90.98901367 C-9.62420967 88.83802833 -9.70221255 86.68766888 -9.78125 84.53710938 C-9.82621899 83.15627256 -9.8705108 81.77541349 -9.9140625 80.39453125 C-9.9548291 79.14518799 -9.9955957 77.89584473 -10.03759766 76.60864258 C-9.99982515 72.98321747 -9.59437641 69.57286262 -9 66 C-11.97 66 -14.94 66 -18 66 C-19.58706842 61.8922935 -20.10191901 60.40767604 -19 56 C-16.03 56 -13.06 56 -10 56 C-10.11803187 49.62779737 -10.24226441 43.25575776 -10.37231445 36.88378906 C-10.41569919 34.71487744 -10.45737161 32.54593087 -10.49731445 30.37695312 C-10.55493139 27.26421565 -10.61865038 24.15165465 -10.68359375 21.0390625 C-10.70030624 20.065065 -10.71701874 19.0910675 -10.73423767 18.08755493 C-10.75418289 17.18677216 -10.77412811 16.28598938 -10.79467773 15.35791016 C-10.81022202 14.56293121 -10.8257663 13.76795227 -10.84178162 12.94888306 C-10.88441725 10.92002226 -10.88441725 10.92002226 -12 9 C-15.02934491 8.34227572 -15.02934491 8.34227572 -18 8 C-17.80078125 6.1015625 -17.80078125 6.1015625 -17 4 C-14.85546875 3.0234375 -14.85546875 3.0234375 -12.1875 2.375 C-8.40614315 1.42778969 -8.40614315 1.42778969 -4.86328125 -0.1484375 C-3 -1 -3 -1 0 0 Z M0 14 C-0.28155072 17.90928905 -0.23186012 21.83178585 -0.25 25.75 C-0.270625 26.84828125 -0.29125 27.9465625 -0.3125 29.078125 C-0.31765625 30.1403125 -0.3228125 31.2025 -0.328125 32.296875 C-0.3374707 33.26979492 -0.34681641 34.24271484 -0.35644531 35.24511719 C0.18598238 39.43741452 2.05406324 42.05406324 5 45 C9.45072919 45.82178497 14.12703971 46.27685112 17.98828125 43.64453125 C23.01826572 37.99047923 24.48495469 32.04749726 24.31640625 24.59765625 C23.63439426 18.99842204 21.49066288 14.56911882 17.625 10.5 C10.66321259 6.52183576 5.48840587 8.51159413 0 14 Z " fill="#151515" transform="translate(295,154)"/>
<path d="M0 0 C1.92578125 0.13671875 1.92578125 0.13671875 4 1 C5.16796875 3.01953125 5.16796875 3.01953125 6.1875 5.8125 C8.4599414 11.69826437 10.95224251 17.44322852 13.5625 23.1875 C15.04297553 26.4577426 16.52244461 29.72843693 18 33 C18.35118896 33.77690186 18.70237793 34.55380371 19.06420898 35.35424805 C21.15173138 40.00600236 23.09076253 44.6850925 24.9375 49.4375 C27.03900677 54.78581118 29.34555351 59.95852901 32.01953125 65.046875 C33 67 33 67 34 70 C35.98 70 37.96 70 40 70 C40 71.32 40 72.64 40 74 C30.43 74 20.86 74 11 74 C10.67 72.68 10.34 71.36 10 70 C12.97 69.505 12.97 69.505 16 69 C16.27771418 64.32051602 15.54837397 61.32416664 13.5 57.125 C13.0359375 56.15820312 12.571875 55.19140625 12.09375 54.1953125 C11.7328125 53.47085938 11.371875 52.74640625 11 52 C9.02 52 7.04 52 5 52 C5.01160156 52.59167969 5.02320313 53.18335938 5.03515625 53.79296875 C5.08322386 58.00231785 5.06006883 61.8922333 4 66 C2.68 66 1.36 66 0 66 C-1.21693876 63.56612247 -1.31959896 61.58161154 -1.5625 58.875 C-1.64628906 57.96492188 -1.73007813 57.05484375 -1.81640625 56.1171875 C-1.90728516 55.06917969 -1.90728516 55.06917969 -2 54 C-6.06429517 53.10067464 -6.06429517 53.10067464 -10.125 53.5625 C-12.66674001 54.15557267 -13.82736912 53.31909732 -16 52 C-16.268125 53.03125 -16.53625 54.0625 -16.8125 55.125 C-17.55129499 57.7750255 -18.3732418 59.70501228 -19.6875 62.1875 C-21.15858205 64.82253914 -21.15858205 64.82253914 -21 67.25 C-19.54885484 69.78950403 -17.71720642 70.16393649 -15 71 C-15 71.99 -15 72.98 -15 74 C-22.26 74 -29.52 74 -37 74 C-36.67 72.68 -36.34 71.36 -36 70 C-34.84951172 69.60167969 -34.84951172 69.60167969 -33.67578125 69.1953125 C-29.8394088 67.48154612 -28.82502251 64.52598837 -27.1875 60.875 C-26.87619141 60.21628906 -26.56488281 59.55757812 -26.24414062 58.87890625 C-25.48135927 57.25946276 -24.73866014 55.63058695 -24 54 C-26.6739124 53.10869587 -29.23723823 52.52268466 -32 52 C-31.67 50.68 -31.34 49.36 -31 48 C-27.7 48.33 -24.4 48.66 -21 49 C-20.59136719 47.70835937 -20.18273437 46.41671875 -19.76171875 45.0859375 C-18.09878982 40.10201592 -16.02056864 35.38734182 -13.8125 30.625 C-10.21017452 22.75460469 -6.77528897 14.83068593 -3.47583008 6.82861328 C-1.10045593 1.10045593 -1.10045593 1.10045593 0 0 Z M-3 22 C-4.29322032 24.89514194 -5.58429741 27.79123484 -6.875 30.6875 C-7.23980469 31.50412109 -7.60460937 32.32074219 -7.98046875 33.16210938 C-8.99416194 35.43831135 -9.99796353 37.71864902 -11 40 C-11.433125 40.969375 -11.86625 41.93875 -12.3125 42.9375 C-13.25854325 45.05204172 -13.25854325 45.05204172 -12.125 47.3125 C-11.75375 47.869375 -11.3825 48.42625 -11 49 C-10.5875 48.505 -10.175 48.01 -9.75 47.5 C-8 46 -8 46 -4 46 C-3.89042969 44.72382813 -3.78085938 43.44765625 -3.66796875 42.1328125 C-3.50853738 40.46347228 -3.34834145 38.79420495 -3.1875 37.125 C-3.11724609 36.28324219 -3.04699219 35.44148438 -2.97460938 34.57421875 C-2.89404297 33.76855469 -2.81347656 32.96289062 -2.73046875 32.1328125 C-2.66239014 31.38918457 -2.59431152 30.64555664 -2.52416992 29.87939453 C-2 28 -2 28 1 26 C0.34 24.68 -0.32 23.36 -1 22 C-1.66 22 -2.32 22 -3 22 Z M2 32 C2 37.28 2 42.56 2 48 C2.66 48.33 3.32 48.66 4 49 C6.62387135 47.60907108 6.62387135 47.60907108 9 46 C8.72285156 45.32453125 8.44570312 44.6490625 8.16015625 43.953125 C7.79792969 43.06109375 7.43570313 42.1690625 7.0625 41.25 C6.70285156 40.36828125 6.34320313 39.4865625 5.97265625 38.578125 C5.14643424 36.38813896 4.50630057 34.28101729 4 32 C3.34 32 2.68 32 2 32 Z " fill="#141313" transform="translate(237,129)"/>
<path d="M0 0 C0.33 2.31 0.66 4.62 1 7 C1.7425 6.21625 2.485 5.4325 3.25 4.625 C7.11175908 0.93877542 9.66107991 -0.28255439 15 -0.25 C15.845625 -0.25515625 16.69125 -0.2603125 17.5625 -0.265625 C21.16053956 0.12646905 23.27501105 1.19445672 25.6875 3.875 C28.37960147 8.23364048 28.20079624 12.82627635 28.31640625 17.828125 C28.33718735 18.57713074 28.35796844 19.32613647 28.37937927 20.09783936 C28.44457088 22.48180288 28.50361783 24.86587312 28.5625 27.25 C28.60571416 28.86980254 28.64932937 30.48959443 28.69335938 32.109375 C28.80022096 36.07280832 28.90157333 40.0363486 29 44 C31.97 44.495 31.97 44.495 35 45 C35 46.32 35 47.64 35 49 C26.75 49 18.5 49 10 49 C10.33 47.68 10.66 46.36 11 45 C14.0625 43.75 14.0625 43.75 17 43 C17.09905303 38.65842948 17.17155301 34.31746146 17.21972656 29.97509766 C17.23981301 28.4987441 17.26708801 27.02246981 17.30175781 25.54638672 C17.35041184 23.42135038 17.37299673 21.29736766 17.390625 19.171875 C17.41157227 17.8940918 17.43251953 16.61630859 17.45410156 15.29980469 C17.26121465 11.94404097 17.26121465 11.94404097 15.19042969 9.55566406 C12.98052304 7.6763461 12.98052304 7.6763461 9.5625 7.9375 C6.37294319 8.88877133 4.30870606 9.65535011 2.0144043 12.07592773 C-0.4149037 16.68371988 0.47099302 22.50416713 0.625 27.5625 C0.63917969 28.79419922 0.65335937 30.02589844 0.66796875 31.29492188 C0.69741105 38.23003349 0.69741105 38.23003349 2 45 C3.65 45 5.3 45 7 45 C7.33 46.32 7.66 47.64 8 49 C-0.25 49 -8.5 49 -17 49 C-17 47.68 -17 46.36 -17 45 C-15.02 44.34 -13.04 43.68 -11 43 C-10.67 31.78 -10.34 20.56 -10 9 C-11.98 9 -13.96 9 -16 9 C-16.33 7.68 -16.66 6.36 -17 5 C-15.10908264 4.15557119 -13.21202485 3.32488413 -11.3125 2.5 C-10.25675781 2.0359375 -9.20101563 1.571875 -8.11328125 1.09375 C-5.14372184 0.05049199 -3.10804937 -0.23065301 0 0 Z " fill="#171717" transform="translate(350,154)"/>
<path d="M0 0 C3.44309825 2.2175887 5.72006529 5.02801126 8.07421875 8.3359375 C8.67234375 9.0784375 9.27046875 9.8209375 9.88671875 10.5859375 C13.00123151 17.79849337 12.42495775 24.84862739 9.9609375 32.14453125 C9.09992007 34.27242015 8.13551539 36.30139941 7.07421875 38.3359375 C6.41421875 38.3359375 5.75421875 38.3359375 5.07421875 38.3359375 C4.82671875 38.9340625 4.57921875 39.5321875 4.32421875 40.1484375 C2.19591206 43.8729742 -1.10150484 45.60975035 -4.92578125 47.3359375 C-11.72351353 48.94763693 -18.53653983 48.54862093 -24.82421875 45.37890625 C-26.48828125 44.3359375 -26.48828125 44.3359375 -28.92578125 42.3359375 C-28.92578125 41.6759375 -28.92578125 41.0159375 -28.92578125 40.3359375 C-29.58578125 40.3359375 -30.24578125 40.3359375 -30.92578125 40.3359375 C-36.33129562 33.0384931 -37.0384643 26.2477045 -35.92578125 17.3359375 C-34.32744439 11.41018861 -31.61518204 7.33908452 -26.92578125 3.3359375 C-25.71921875 2.253125 -25.71921875 2.253125 -24.48828125 1.1484375 C-16.86804826 -4.24148339 -8.16158161 -4.01669462 0 0 Z M-19.92578125 4.3359375 C-19.92578125 4.9959375 -19.92578125 5.6559375 -19.92578125 6.3359375 C-20.58578125 6.3359375 -21.24578125 6.3359375 -21.92578125 6.3359375 C-26.03334188 14.72964835 -26.76180471 21.64913112 -24.01953125 30.67578125 C-22.16501681 35.18622531 -19.41332398 40.09216613 -14.92578125 42.3359375 C-11.84409862 42.81423402 -8.99968411 42.89434546 -5.92578125 42.3359375 C-1.40629344 38.29724627 0.70880804 34.09444765 1.29296875 28.0859375 C1.5754456 20.55322154 0.48065932 13.47767935 -4.17578125 7.3984375 C-9.68087486 3.2696173 -13.42030626 1.32120519 -19.92578125 4.3359375 Z " fill="#1D1D1D" transform="translate(348.92578125,215.6640625)"/>
<path d="M0 0 C4.05813497 3.5508681 6.34909741 7.49731176 8 12.625 C8 14.605 8 16.585 8 18.625 C-2.56 18.625 -13.12 18.625 -24 18.625 C-21.56186103 26.6448243 -21.56186103 26.6448243 -19 34.625 C-18.34 34.625 -17.68 34.625 -17 34.625 C-17 35.285 -17 35.945 -17 36.625 C-11.90782914 38.84466422 -7.29737838 39.32563439 -2 37.625 C0.25317449 35.80722155 1.36833995 34.09721219 3 31.625 C3.66 30.635 4.32 29.645 5 28.625 C5.99 28.955 6.98 29.285 8 29.625 C7.68332024 37.22531428 4.07013427 41.6189381 -1.24609375 46.82421875 C-6.54786109 50.29104817 -12.95007836 49.47275972 -19 48.625 C-24.55364865 46.20460387 -28.17757098 41.93116656 -31 36.625 C-33.38008311 27.50401037 -33.28374733 16.13686157 -29 7.625 C-23.23450029 -1.98416618 -10.0100009 -4.5997816 0 0 Z M-21.93359375 8.80078125 C-23.2523377 10.70447896 -23.2523377 10.70447896 -23 13.625 C-16.73 13.625 -10.46 13.625 -4 13.625 C-5.48872201 7.58356294 -5.48872201 7.58356294 -10 3.625 C-16.16221128 2.57858676 -18.26487763 4.23164917 -21.93359375 8.80078125 Z " fill="#121212" transform="translate(421,155.375)"/>
<path d="M0 0 C0.33 0 0.66 0 1 0 C1.33 11.88 1.66 23.76 2 36 C4.64 35.67 7.28 35.34 10 35 C12.5 35.4375 12.5 35.4375 14 36 C14.33 35.01 14.66 34.02 15 33 C18.3 33.33 21.6 33.66 25 34 C25 34.33 25 34.66 25 35 C22.36 35.33 19.72 35.66 17 36 C16.67 36.99 16.34 37.98 16 39 C14.68 38.67 13.36 38.34 12 38 C11.67 40.31 11.34 42.62 11 45 C13.97 45 16.94 45 20 45 C21.4783226 47.95664519 21.06032783 50.74229737 21 54 C17.78548731 55.60725635 14.56387464 55.05748185 11 55 C10.95047294 59.34161825 10.91422046 63.68308575 10.89013672 68.02490234 C10.88009409 69.50116847 10.86645735 70.97741479 10.84912109 72.45361328 C10.82479579 74.57850034 10.8134996 76.70312385 10.8046875 78.828125 C10.79421387 80.1059082 10.78374023 81.38369141 10.77294922 82.70019531 C10.98449722 85.77469299 11.36873092 87.43738352 13 90 C15.41645782 90.16687448 15.41645782 90.16687448 18 90 C18.99 89.01 18.99 89.01 20 88 C21.32 88 22.64 88 24 88 C22.60466338 92.43970742 20.43871468 94.90515679 17 98 C13.79826746 99.60086627 10.47422941 99.49917089 7 99 C4.1899654 97.20636089 2.49059532 95.98119065 1 93 C0.83268323 90.7596912 0.72610412 88.51473643 0.6484375 86.26953125 C0.62528473 85.60088547 0.60213196 84.93223969 0.57827759 84.24333191 C0.53062437 82.82530301 0.48539193 81.40719102 0.44238281 79.98901367 C0.37579033 77.83802833 0.29778745 75.68766888 0.21875 73.53710938 C0.17378101 72.15627256 0.1294892 70.77541349 0.0859375 69.39453125 C0.0451709 68.14518799 0.0044043 66.89584473 -0.03759766 65.60864258 C0.00017485 61.98321747 0.40562359 58.57286262 1 55 C-1.97 55 -4.94 55 -8 55 C-9.58706842 50.8922935 -10.10191901 49.40767604 -9 45 C-6.03 45 -3.06 45 0 45 C0 30.15 0 15.3 0 0 Z " fill="#D92C04" transform="translate(285,165)"/>
<path d="M0 0 C2.3125 2 2.3125 2 3.3125 3 C3.38429964 4.51928038 3.39642007 6.04167482 3.375 7.5625 C3.36597656 8.38878906 3.35695313 9.21507812 3.34765625 10.06640625 C3.33605469 10.70449219 3.32445312 11.34257812 3.3125 12 C0.48661651 13.59644067 -0.45995663 14.02275434 -3.8125 13.6875 C-6.6875 12 -6.6875 12 -7.515625 9.85546875 C-8.01475978 7.59153601 -8.3596425 5.29500249 -8.6875 3 C-12.6475 3 -16.6075 3 -20.6875 3 C-21.0175 3.99 -21.3475 4.98 -21.6875 6 C-22.3475 6 -23.0075 6 -23.6875 6 C-25.49208923 13.73606694 -26.68466702 23.772083 -22.375 30.8125 C-19.91056915 34.16501403 -17.54059309 35.78672673 -13.4375 36.8125 C-8.82622632 37.04306368 -6.63003193 36.40932507 -2.6875 34 C-1.19430493 31.94988352 0.01694531 29.90152412 1.171875 27.64453125 C1.54828125 27.10183594 1.9246875 26.55914062 2.3125 26 C3.3025 26 4.2925 26 5.3125 26 C5.8323534 33.19307353 2.64785452 37.50797975 -1.6875 43 C-5.48965098 46.79287744 -9.3715766 47.26900776 -14.625 47.5 C-20.28945728 47.32899752 -23.89468324 45.9494257 -28.6875 43 C-28.6875 42.34 -28.6875 41.68 -28.6875 41 C-29.3475 41 -30.0075 41 -30.6875 41 C-31.33584654 39.730447 -31.98107815 38.45930294 -32.625 37.1875 C-32.98464844 36.47980469 -33.34429687 35.77210938 -33.71484375 35.04296875 C-36.81255642 28.53652808 -36.80990499 19.5479267 -35.0859375 12.5625 C-33.91910953 9.82811526 -32.33504121 7.47131182 -30.6875 5 C-30.0275 5 -29.3675 5 -28.6875 5 C-28.460625 4.401875 -28.23375 3.80375 -28 3.1875 C-25.86310275 -0.37399541 -23.03251805 -1.60633618 -19.125 -2.75 C-12.77757833 -3.21163067 -5.49379487 -3.65809586 0 0 Z " fill="#1B1B1B" transform="translate(269.6875,217)"/>
<path d="M0 0 C0.88945312 0.00644531 1.77890625 0.01289063 2.6953125 0.01953125 C3.61570312 0.03628906 4.53609375 0.05304688 5.484375 0.0703125 C6.42023438 0.07933594 7.35609375 0.08835938 8.3203125 0.09765625 C10.62510989 0.12117459 12.92977533 0.15704424 15.234375 0.1953125 C15.234375 5.4753125 15.234375 10.7553125 15.234375 16.1953125 C11.234375 15.1953125 11.234375 15.1953125 10.14453125 13.41796875 C9.86480469 12.70511719 9.58507812 11.99226562 9.296875 11.2578125 C7.75850086 7.90484631 7.75850086 7.90484631 4.859375 5.6328125 C1.73980181 5.11288364 -0.69983624 5.48233837 -3.765625 6.1953125 C-4.71582916 8.4351475 -4.71582916 8.4351475 -4.765625 11.1953125 C-0.847677 15.8385295 3.8594107 18.41319192 9.15039062 21.15625 C14.21236184 23.89245066 17.39484641 26.67672673 19.234375 32.1953125 C19.71028396 37.14476564 19.21958702 40.49675647 16.546875 44.6171875 C13.36907775 48.43811038 10.22504328 50.00284457 5.40625 50.46875 C-2.02423469 50.56600765 -2.02423469 50.56600765 -4.765625 49.1953125 C-5.94125 49.1953125 -7.116875 49.1953125 -8.328125 49.1953125 C-9.4625 49.1953125 -10.596875 49.1953125 -11.765625 49.1953125 C-12.765625 48.1953125 -12.765625 48.1953125 -12.86328125 44.37890625 C-12.85660589 42.79684568 -12.84464375 41.21480091 -12.828125 39.6328125 C-12.82361328 38.82650391 -12.81910156 38.02019531 -12.81445312 37.18945312 C-12.80263018 35.19137494 -12.78469414 33.19333467 -12.765625 31.1953125 C-10.82885742 31.58642578 -10.82885742 31.58642578 -8.765625 32.1953125 C-7.75390625 33.9375 -7.75390625 33.9375 -7.078125 36.0703125 C-6.84738281 36.76898438 -6.61664063 37.46765625 -6.37890625 38.1875 C-6.17652344 38.85007813 -5.97414063 39.51265625 -5.765625 40.1953125 C-5.435625 41.1853125 -5.105625 42.1753125 -4.765625 43.1953125 C-1.27620164 44.671607 2.51496772 44.46581485 6.234375 44.1953125 C8.38217577 43.29773694 8.38217577 43.29773694 9.234375 41.1953125 C9.48685644 37.78052877 9.48685644 37.78052877 8.234375 34.1953125 C5.73180861 31.98505252 2.89113244 30.56836021 -0.078125 29.0703125 C-10.067686 23.8547452 -10.067686 23.8547452 -12.765625 19.1953125 C-13.7313781 13.85526597 -13.68535781 8.83769251 -11.015625 4.0703125 C-7.37883627 1.03965523 -4.74490078 -0.06083206 0 0 Z " fill="#181818" transform="translate(419.765625,212.8046875)"/>
<path d="M0 0 C0.99 0.33 1.98 0.66 3 1 C2.34 2.32 1.68 3.64 1 5 C1.804375 5.2475 2.60875 5.495 3.4375 5.75 C7.74324143 7.26078647 11.85364007 9.10188856 16 11 C16.5775 10.360625 17.155 9.72125 17.75 9.0625 C21.4842258 5.63945969 24.8394317 5.7761959 29.84228516 5.79882812 C33.32606385 6.12363392 36.24613502 7.55141691 39.3125 9.125 C39.95912598 9.44339844 40.60575195 9.76179688 41.27197266 10.08984375 C43.19057394 11.04273798 45.09584507 12.01862392 47 13 C48.02222656 13.51304687 49.04445312 14.02609375 50.09765625 14.5546875 C56.15714974 17.70801041 62.04182268 21.24994371 67 26 C67 26.66 67 27.32 67 28 C67.66 28 68.32 28 69 28 C69 28.66 69 29.32 69 30 C69.66 30 70.32 30 71 30 C71 30.66 71 31.32 71 32 C71.66 32 72.32 32 73 32 C73.33 30.35 73.66 28.7 74 27 C75.8125 26.375 75.8125 26.375 78 26 C78.99 26.66 79.98 27.32 81 28 C80.75 31.3125 80.75 31.3125 80 35 C79.33871094 35.46535156 78.67742187 35.93070312 77.99609375 36.41015625 C75.76976512 37.84676963 75.76976512 37.84676963 75.42578125 40.4453125 C75.38839844 41.32960938 75.35101563 42.21390625 75.3125 43.125 C75.06870229 47.93129771 75.06870229 47.93129771 74 49 C71.5 49.125 71.5 49.125 69 49 C68.67 48.67 68.34 48.34 68 48 C68.28730055 45.66055264 68.61936779 43.3260857 69 41 C67.69675781 41.17660156 66.39351563 41.35320312 65.05078125 41.53515625 C60.32826455 42.05230087 55.90290722 41.94212687 51.1875 41.4375 C50.38578369 41.3537915 49.58406738 41.27008301 48.75805664 41.18383789 C38.85738691 39.97223421 27.97452258 37.48726129 19 33 C19 32.34 19 31.68 19 31 C18.01 30.67 17.02 30.34 16 30 C13.56935292 26.91494793 12.94470081 24.80922903 12.9375 21 C12.84552839 18.90339372 12.84552839 18.90339372 12 17 C8.92702236 14.71927441 5.53284053 13.42428721 2 12 C0.45096971 11.24407322 -1.09165025 10.47474754 -2.625 9.6875 C-3.73875 9.130625 -4.8525 8.57375 -6 8 C-5.35417969 7.72285156 -4.70835937 7.44570313 -4.04296875 7.16015625 C-3.36878906 6.77730469 -2.69460937 6.39445312 -2 6 C-1.26259783 3.48051222 -1.26259783 3.48051222 -1 1 C-0.67 0.67 -0.34 0.34 0 0 Z M18.5625 15.75 C17.70360861 19.18556555 18.10127532 21.58484621 19 25 C24.02487642 32.53731463 35.60477201 35.0626397 44 37 C52.51165723 38.40769716 61.53536812 38.83019068 70 37 C69.34 35.68 68.68 34.36 68 33 C67.34 33 66.68 33 66 33 C66 32.34 66 31.68 66 31 C65.34 31 64.68 31 64 31 C63.505 29.515 63.505 29.515 63 28 C53.23637411 20.05286265 41.13367272 12.23581375 28.4375 10.6875 C24.42736422 11.20161997 21.15793287 12.59034259 18.5625 15.75 Z " fill="#646368" transform="translate(204,262)"/>
<path d="M0 0 C0.66 1.32 1.32 2.64 2 4 C2.639375 3.34 3.27875 2.68 3.9375 2 C7.8831709 -0.57676467 11.37953662 -0.9604334 16 0 C17.75 1.3046875 17.75 1.3046875 19 3 C19.375 6.5625 19.375 6.5625 19 10 C15.71662309 12.18891794 14.80441099 12.45290607 11 12 C8.1875 10.5 8.1875 10.5 6 9 C3.07668162 11.31640107 2.07760969 12.45172509 1.54589844 16.20800781 C1.5668457 17.44389648 1.58779297 18.67978516 1.609375 19.953125 C1.61503479 20.61334656 1.62069458 21.27356812 1.62652588 21.95379639 C1.6488377 24.05328263 1.69901686 26.1510337 1.75 28.25 C1.77007206 29.6770586 1.78832161 31.10414408 1.8046875 32.53125 C1.84868307 36.02139293 1.91767124 39.51052699 2 43 C4.64 43.99 7.28 44.98 10 46 C10 46.66 10 47.32 10 48 C7.39048764 49.30475618 5.47298715 49.11301572 2.5546875 49.09765625 C0.94013672 49.09282227 0.94013672 49.09282227 -0.70703125 49.08789062 C-1.83496094 49.07951172 -2.96289062 49.07113281 -4.125 49.0625 C-5.26066406 49.05798828 -6.39632813 49.05347656 -7.56640625 49.04882812 C-10.37765638 49.03701615 -13.1888023 49.02054507 -16 49 C-16 47.68 -16 46.36 -16 45 C-14.35 45 -12.7 45 -11 45 C-9.84969672 41.54909017 -9.87052866 38.85360188 -9.8671875 35.21484375 C-9.86623077 34.55795059 -9.86527405 33.90105743 -9.86428833 33.22425842 C-9.86360887 31.83822534 -9.86544686 30.45218905 -9.86962891 29.06616211 C-9.87498909 26.94182217 -9.8696717 24.81769283 -9.86328125 22.69335938 C-9.86394191 21.3463537 -9.86522281 19.99934815 -9.8671875 18.65234375 C-9.86887939 16.81144165 -9.86887939 16.81144165 -9.87060547 14.93334961 C-9.79757184 12.06538723 -9.79757184 12.06538723 -11 10 C-14.02934491 9.34227572 -14.02934491 9.34227572 -17 9 C-16.828125 7.171875 -16.828125 7.171875 -16 5 C-13.671875 3.515625 -13.671875 3.515625 -10.75 2.25 C-9.79609375 1.82203125 -8.8421875 1.3940625 -7.859375 0.953125 C-5.03194417 0.01064806 -2.95292255 -0.19398761 0 0 Z " fill="#151515" transform="translate(383,213)"/>
<path d="M0 0 C0.86809439 5.20173095 1.12515348 10.16978816 1.0625 15.4375 C1.05798828 16.16904297 1.05347656 16.90058594 1.04882812 17.65429688 C1.03718148 19.43623419 1.01925191 21.21812863 1 23 C2.98 22.34 4.96 21.68 7 21 C7 22.98 7 24.96 7 27 C5.68 27 4.36 27 3 27 C3.01160156 27.59167969 3.02320313 28.18335938 3.03515625 28.79296875 C3.08322386 33.00231785 3.06006883 36.8922333 2 41 C0.68 41 -0.64 41 -2 41 C-3.21693876 38.56612247 -3.31959896 36.58161154 -3.5625 33.875 C-3.64628906 32.96492188 -3.73007813 32.05484375 -3.81640625 31.1171875 C-3.87699219 30.41851562 -3.93757813 29.71984375 -4 29 C-8.06429517 28.10067464 -8.06429517 28.10067464 -12.125 28.5625 C-14.66674001 29.15557267 -15.82736912 28.31909732 -18 27 C-18.268125 28.03125 -18.53625 29.0625 -18.8125 30.125 C-19.55129499 32.7750255 -20.3732418 34.70501228 -21.6875 37.1875 C-23.15858205 39.82253914 -23.15858205 39.82253914 -23 42.25 C-21.54885484 44.78950403 -19.71720642 45.16393649 -17 46 C-17 46.99 -17 47.98 -17 49 C-24.26 49 -31.52 49 -39 49 C-38.67 47.68 -38.34 46.36 -38 45 C-36.84951172 44.60167969 -36.84951172 44.60167969 -35.67578125 44.1953125 C-31.8394088 42.48154612 -30.82502251 39.52598837 -29.1875 35.875 C-28.87619141 35.21628906 -28.56488281 34.55757812 -28.24414062 33.87890625 C-27.48135927 32.25946276 -26.73866014 30.63058695 -26 29 C-28.6739124 28.10869587 -31.23723823 27.52268466 -34 27 C-33.67 25.68 -33.34 24.36 -33 23 C-29.7 23.33 -26.4 23.66 -23 24 C-22.67 22.35 -22.34 20.7 -22 19 C-21.34 20.32 -20.68 21.64 -20 23 C-18.35 23 -16.7 23 -15 23 C-14.67 22.01 -14.34 21.02 -14 20 C-13.34 20.99 -12.68 21.98 -12 23 C-11.34 22.01 -10.68 21.02 -10 20 C-9.01 20 -8.02 20 -7 20 C-6.89042969 18.80761719 -6.78085938 17.61523438 -6.66796875 16.38671875 C-6.50850701 14.82024165 -6.34831249 13.25383901 -6.1875 11.6875 C-6.11724609 10.90181641 -6.04699219 10.11613281 -5.97460938 9.30664062 C-5.89404297 8.54931641 -5.81347656 7.79199219 -5.73046875 7.01171875 C-5.62835083 5.96697388 -5.62835083 5.96697388 -5.52416992 4.90112305 C-4.69208485 1.88321599 -3.22193441 0 0 0 Z " fill="#DC7575" transform="translate(239,154)"/>
<path d="M0 0 C2.64 0.33 5.28 0.66 8 1 C8.0501123 1.64549805 8.10022461 2.29099609 8.15185547 2.95605469 C8.38433333 5.88812245 8.62952814 8.8189927 8.875 11.75 C8.95363281 12.76578125 9.03226562 13.7815625 9.11328125 14.828125 C9.19707031 15.8078125 9.28085937 16.7875 9.3671875 17.796875 C9.44050293 18.69760742 9.51381836 19.59833984 9.58935547 20.52636719 C10.00610936 23.03680142 10.74074957 24.80415406 12 27 C14.41645782 27.16687448 14.41645782 27.16687448 17 27 C17.66 26.34 18.32 25.68 19 25 C20.32 25 21.64 25 23 25 C21.60466338 29.43970742 19.43871468 31.90515679 16 35 C12.79826746 36.60086627 9.47422941 36.49917089 6 36 C3.1899654 34.20636089 1.49059532 32.98119065 0 30 C-0.08573394 27.74879258 -0.10712188 25.49500697 -0.09765625 23.2421875 C-0.0962413 22.57913605 -0.09482635 21.91608459 -0.09336853 21.23294067 C-0.08776754 19.11358137 -0.075215 16.99432741 -0.0625 14.875 C-0.05748512 13.43880361 -0.05292219 12.00260556 -0.04882812 10.56640625 C-0.03779782 7.04423655 -0.02053259 3.52212855 0 0 Z " fill="#100F0F" transform="translate(286,228)"/>
<path d="M0 0 C2 2 2 2 2.1875 3.9609375 C1.15264305 17.28472068 -6.49658105 27.21269425 -16 36 C-17.485 36.495 -17.485 36.495 -19 37 C-19.33 37.99 -19.66 38.98 -20 40 C-22.475 40.495 -22.475 40.495 -25 41 C-25.66 42.98 -26.32 44.96 -27 47 C-29.97 47 -32.94 47 -36 47 C-36.33 45.02 -36.66 43.04 -37 41 C-35.845 40.46375 -34.69 39.9275 -33.5 39.375 C-29.59094932 37.43433654 -26.2648568 35.0831296 -22.859375 32.3671875 C-20.98289357 30.98742174 -19.10862189 29.97966946 -17 29 C-17 28.34 -17 27.68 -17 27 C-16.34 27 -15.68 27 -15 27 C-14.61328125 26.17242187 -14.61328125 26.17242187 -14.21875 25.328125 C-12.82036875 22.65685825 -11.21236695 20.23148091 -9.5 17.75 C-8.8915625 16.85796875 -8.283125 15.9659375 -7.65625 15.046875 C-7.1096875 14.37140625 -6.563125 13.6959375 -6 13 C-5.34 13 -4.68 13 -4 13 C-3.96261719 12.22914063 -3.92523438 11.45828125 -3.88671875 10.6640625 C-3.82097656 9.66117188 -3.75523437 8.65828125 -3.6875 7.625 C-3.60048828 6.12839844 -3.60048828 6.12839844 -3.51171875 4.6015625 C-3.34285156 3.74304688 -3.17398438 2.88453125 -3 2 C-2.01 1.34 -1.02 0.68 0 0 Z " fill="#47474A" transform="translate(229,222)"/>
<path d="M0 0 C0.515625 0.515625 1.03125 1.03125 1.5625 1.5625 C0.77875 1.8925 -0.005 2.2225 -0.8125 2.5625 C-4.11857916 5.08141746 -4.1981933 6.71456895 -4.99609375 10.625 C-5.60912688 13.31583568 -6.33682247 14.75157109 -8.4375 16.5625 C-12.125 17.3125 -12.125 17.3125 -15.4375 17.5625 C-14.7775 15.5825 -14.1175 13.6025 -13.4375 11.5625 C-14.4275 12.0575 -14.4275 12.0575 -15.4375 12.5625 C-20.69215839 13.00970497 -20.69215839 13.00970497 -23.3125 11.4375 C-24.96604531 8.68159116 -24.83115568 6.71174548 -24.4375 3.5625 C-23.3125 1.6875 -23.3125 1.6875 -21.4375 0.5625 C-16.9926448 0.0686272 -13.5825691 0.98342606 -9.4375 2.5625 C-9.4375 1.5725 -9.4375 0.5825 -9.4375 -0.4375 C-3.0375 -1.79134615 -3.0375 -1.79134615 0 0 Z " fill="#39383D" transform="translate(175.4375,277.4375)"/>
<path d="M0 0 C0.33 0 0.66 0 1 0 C1.33 11.88 1.66 23.76 2 36 C4.64 35.67 7.28 35.34 10 35 C12.5 35.4375 12.5 35.4375 14 36 C14.33 35.01 14.66 34.02 15 33 C18.3 33.33 21.6 33.66 25 34 C25 34.33 25 34.66 25 35 C22.36 35.33 19.72 35.66 17 36 C16.67 36.99 16.34 37.98 16 39 C14.68 38.67 13.36 38.34 12 38 C11.67 40.31 11.34 42.62 11 45 C13.97 45 16.94 45 20 45 C21.4783226 47.95664519 21.06032783 50.74229737 21 54 C19 55 19 55 11 55 C10.67 60.28 10.34 65.56 10 71 C9.67 71 9.34 71 9 71 C9 68.69 9 66.38 9 64 C6.69 64 4.38 64 2 64 C1.34 65.32 0.68 66.64 0 68 C0.33 64.7 0.66 61.4 1 58 C1.66 58.99 2.32 59.98 3 61 C5.56282742 61.72965366 5.56282742 61.72965366 8 62 C8.33 59.36 8.66 56.72 9 54 C13.95 53.505 13.95 53.505 19 53 C19 50.69 19 48.38 19 46 C16.03 46 13.06 46 10 46 C8.64560332 43.29120665 8.93498549 40.99066732 9 38 C7.02 38 5.04 38 3 38 C3.061875 39.670625 3.061875 39.670625 3.125 41.375 C3 45 3 45 1 47 C-1.3828125 47.4140625 -1.3828125 47.4140625 -4.125 47.625 C-5.03507812 47.69976562 -5.94515625 47.77453125 -6.8828125 47.8515625 C-7.58148438 47.90054688 -8.28015625 47.94953125 -9 48 C-9 47.01 -9 46.02 -9 45 C-6.03 45 -3.06 45 0 45 C0 30.15 0 15.3 0 0 Z " fill="#8E5044" transform="translate(285,165)"/>
<path d="M0 0 C1.67542976 0.28604898 3.34385343 0.61781233 5 1 C5.97353743 4.02878312 6.24612776 6.02846457 5 9 C4.00613281 9.64388672 4.00613281 9.64388672 2.9921875 10.30078125 C0.7812506 11.84682577 0.7812506 11.84682577 0.42578125 14.4453125 C0.38839844 15.32960938 0.35101563 16.21390625 0.3125 17.125 C0.06870229 21.93129771 0.06870229 21.93129771 -1 23 C-3.5 23.125 -3.5 23.125 -6 23 C-6.33 22.67 -6.66 22.34 -7 22 C-6.71269945 19.66055264 -6.38063221 17.3260857 -6 15 C-7.9490625 15.309375 -7.9490625 15.309375 -9.9375 15.625 C-14.95407711 16.20628592 -19.18246972 15.37806422 -24 14 C-24 13.34 -24 12.68 -24 12 C-15.09 11.01 -15.09 11.01 -6 10 C-5.67 8.68 -5.34 7.36 -5 6 C-4.01 6 -3.02 6 -2 6 C-1.855625 5.195625 -1.71125 4.39125 -1.5625 3.5625 C-1 1 -1 1 0 0 Z " fill="#58575B" transform="translate(279,288)"/>
<path d="M0 0 C0.99 0.33 1.98 0.66 3 1 C3.18232764 5.64935477 2.7293982 8.7341511 1 13 C0.9046469 15.20350035 0.9046469 15.20350035 2 17 C4.49034386 18.29660434 4.49034386 18.29660434 7 19 C7 19.99 7 20.98 7 22 C-0.26 22 -7.52 22 -15 22 C-14.67 20.68 -14.34 19.36 -14 18 C-13.24203125 17.74347656 -12.4840625 17.48695313 -11.703125 17.22265625 C-7.66090107 15.3943093 -6.62188452 12.31446082 -4.75 8.4375 C-1.02829314 1.02829314 -1.02829314 1.02829314 0 0 Z " fill="#222222" transform="translate(215,181)"/>
<path d="M0 0 C1.65 1.65 3.3 3.3 5 5 C3.52084565 9.6010234 1.81416998 14.0854518 0 18.5625 C-0.26039063 19.20896484 -0.52078125 19.85542969 -0.7890625 20.52148438 C-1.52491583 22.34811019 -2.26241377 24.17407323 -3 26 C-3.66742366 27.66636367 -4.33443687 29.33289234 -5 31 C-7.31 31.33 -9.62 31.66 -12 32 C-10.69967296 24.99386633 -8.47048653 19.0551231 -5.4375 12.625 C-4.62260901 10.86769203 -3.8087598 9.1099005 -2.99609375 7.3515625 C-2.63700928 6.58666504 -2.2779248 5.82176758 -1.90795898 5.03369141 C-0.90251931 2.8708861 -0.90251931 2.8708861 0 0 Z " fill="#282626" transform="translate(229,146)"/>
<path d="M0 0 C0.89589844 0.00322266 1.79179687 0.00644531 2.71484375 0.00976562 C4.12056641 0.02233398 4.12056641 0.02233398 5.5546875 0.03515625 C6.49957031 0.03966797 7.44445312 0.04417969 8.41796875 0.04882812 C10.7552352 0.0606325 13.09246919 0.07856826 15.4296875 0.09765625 C15.4296875 5.37765625 15.4296875 10.65765625 15.4296875 16.09765625 C11.4296875 15.09765625 11.4296875 15.09765625 10.33984375 13.3203125 C10.06011719 12.60746094 9.78039062 11.89460937 9.4921875 11.16015625 C7.95877894 7.83075143 7.95877894 7.83075143 5.1171875 5.53515625 C1.6954933 4.97813626 -1.18567047 5.43400095 -4.5703125 6.09765625 C-4.9003125 5.10765625 -5.2303125 4.11765625 -5.5703125 3.09765625 C-8.53435755 5.90569893 -11.01530269 8.28081399 -12.5703125 12.09765625 C-12.20197394 5.71312124 -12.20197394 5.71312124 -9.1328125 2.72265625 C-5.70145326 0.54667234 -4.02116088 -0.02545039 0 0 Z " fill="#212121" transform="translate(419.5703125,212.90234375)"/>
<path d="M0 0 C0.99 0 1.98 0 3 0 C3.66 0.66 4.32 1.32 5 2 C5.99 2 6.98 2 8 2 C8.33 2.99 8.66 3.98 9 5 C9.33 5.66 9.66 6.32 10 7 C10.66 7 11.32 7 12 7 C12.05395478 8.62463842 12.09277195 10.24978541 12.125 11.875 C12.14820313 12.77992188 12.17140625 13.68484375 12.1953125 14.6171875 C12 17 12 17 10 19 C6.5 19.25 6.5 19.25 3 19 C1 17 1 17 0.83984375 14.35546875 C0.87207031 13.31003906 0.90429688 12.26460937 0.9375 11.1875 C1.04952559 7.26660441 0.9114304 3.82235541 0 0 Z " fill="#38373C" transform="translate(191,212)"/>
<path d="M0 0 C11.02102068 4.89327369 21.83108461 9.98943513 31 18 C31 18.66 31 19.32 31 20 C31.66 20 32.32 20 33 20 C33 20.66 33 21.32 33 22 C33.66 22 34.32 22 35 22 C34.34 23.65 33.68 25.3 33 27 C32.505 26.01 32.505 26.01 32 25 C31.34 25 30.68 25 30 25 C30 24.34 30 23.68 30 23 C29.34 23 28.68 23 28 23 C26.32329777 21.3434297 24.65831858 19.67497314 23 18 C15.55336793 12.29343725 7.78274184 8.23902536 -1 5 C-0.34 4.34 0.32 3.68 1 3 C0.67 2.01 0.34 1.02 0 0 Z " fill="#555555" transform="translate(240,270)"/>
<path d="M0 0 C1.75 1.3046875 1.75 1.3046875 3 3 C3.375 6.5625 3.375 6.5625 3 10 C-0.28337691 12.18891794 -1.19558901 12.45290607 -5 12 C-6.67419438 11.0126546 -8.34051852 10.01187895 -10 9 C-13.19395026 8.28598768 -13.19395026 8.28598768 -16 8 C-16 5.69 -16 3.38 -16 1 C-15.01 2.485 -15.01 2.485 -14 4 C-13.0409375 3.01 -13.0409375 3.01 -12.0625 2 C-8.1168291 -0.57676467 -4.62046338 -0.9604334 0 0 Z " fill="#2C2C2C" transform="translate(399,213)"/>
<path d="M0 0 C4.01634594 2.34918348 6.96574688 4.88401733 9.3125 8.9375 C9.3125 11.8125 9.3125 11.8125 8.3125 13.9375 C7.3225 14.4325 7.3225 14.4325 6.3125 14.9375 C5.62156104 17.51701874 5.62156104 17.51701874 5.1875 20.5 C5.01992187 21.51191406 4.85234375 22.52382812 4.6796875 23.56640625 C4.55851562 24.34886719 4.43734375 25.13132813 4.3125 25.9375 C3.6525 25.9375 2.9925 25.9375 2.3125 25.9375 C2.4775 25.2775 2.6425 24.6175 2.8125 23.9375 C3.6322465 19.01902102 4.05607501 14.73773424 2.125 10.0625 C-1.5490203 5.75502792 -6.28605348 5.5729643 -11.6875 4.9375 C-11.6875 4.6075 -11.6875 4.2775 -11.6875 3.9375 C-9.7075 3.6075 -7.7275 3.2775 -5.6875 2.9375 C-8.60457716 1.88735222 -10.15390599 2.00987334 -13.3125 2.5 C-14.983125 2.7165625 -14.983125 2.7165625 -16.6875 2.9375 C-17.3475 2.2775 -18.0075 1.6175 -18.6875 0.9375 C-12.27166084 -1.69463914 -6.6147199 -1.90593624 0 0 Z " fill="#4E4D50" transform="translate(220.6875,209.0625)"/>
<path d="M0 0 C0.5534764 2.07553648 1 3.84365964 1 6 C0.175 6.5775 -0.65 7.155 -1.5 7.75 C-4.31409131 9.7875892 -4.31409131 9.7875892 -4.375 13.0625 C-4.08933543 16.05457456 -4.08933543 16.05457456 -3 19 C-1.06669397 20.09166275 -1.06669397 20.09166275 1 21 C1.66 21.66 2.32 22.32 3 23 C0.8125 23.75 0.8125 23.75 -2 24 C-4.625 22.125 -4.625 22.125 -7 20 C-7.99 19.67 -8.98 19.34 -10 19 C-10.05406122 17.06280622 -10.09282025 15.12518079 -10.125 13.1875 C-10.14820313 12.10855469 -10.17140625 11.02960938 -10.1953125 9.91796875 C-10 7 -10 7 -8 4 C-5.69034152 2.94647157 -3.3570226 1.94280904 -1 1 C-0.67 0.67 -0.34 0.34 0 0 Z " fill="#444347" transform="translate(154,271)"/>
<path d="M0 0 C0.81082031 0.39832031 1.62164062 0.79664063 2.45703125 1.20703125 C12.54318548 6.03288618 21.854003 9.08639369 33 10 C32.34 10.33 31.68 10.66 31 11 C31 11.66 31 12.32 31 13 C32.32 13.33 33.64 13.66 35 14 C26.26127233 13.97106382 18.57883175 12.57915781 10.25 10.0625 C9.36860352 9.79743652 8.48720703 9.53237305 7.57910156 9.25927734 C1.2771535 7.2771535 1.2771535 7.2771535 -1 5 C-0.01 5 0.98 5 2 5 C1.34 4.34 0.68 3.68 0 3 C0 2.01 0 1.02 0 0 Z " fill="#5F5F60" transform="translate(224,289)"/>
<path d="M0 0 C0.99 0.33 1.98 0.66 3 1 C2.34 2.32 1.68 3.64 1 5 C1.825 5.2475 2.65 5.495 3.5 5.75 C7.52373471 7.18704811 11.21979024 9.02354515 15 11 C14.835 11.66 14.67 12.32 14.5 13 C13.87816701 16.73099794 13.93591074 20.21873378 14 24 C14.66 24.33 15.32 24.66 16 25 C15.34 25.66 14.68 26.32 14 27 C13.97164062 26.33613281 13.94328125 25.67226563 13.9140625 24.98828125 C13.59752503 22.05817088 13.15321409 19.72008106 12 17 C8.951785 14.5992442 5.60241166 13.37708469 2 12 C0.4494919 11.24710905 -1.09330572 10.47796365 -2.625 9.6875 C-3.73875 9.130625 -4.8525 8.57375 -6 8 C-5.35417969 7.72285156 -4.70835937 7.44570313 -4.04296875 7.16015625 C-3.36878906 6.77730469 -2.69460937 6.39445312 -2 6 C-1.26259783 3.48051222 -1.26259783 3.48051222 -1 1 C-0.67 0.67 -0.34 0.34 0 0 Z " fill="#48474A" transform="translate(204,262)"/>
<path d="M0 0 C0.66 0.99 1.32 1.98 2 3 C1.30132812 2.90460938 0.60265625 2.80921875 -0.1171875 2.7109375 C-1.02726563 2.60007812 -1.93734375 2.48921875 -2.875 2.375 C-3.77992188 2.25898438 -4.68484375 2.14296875 -5.6171875 2.0234375 C-6.40351563 2.01570313 -7.18984375 2.00796875 -8 2 C-10.31563087 3.88500271 -10.31563087 3.88500271 -10.25 7 C-10.31563087 10.11499729 -10.31563087 10.11499729 -8 12 C-4.60402937 12.21676408 -2.24221555 12.08073852 1 11 C0.49396008 13.16874252 0.00016187 14.99967627 -1 17 C0.98 17 2.96 17 5 17 C0.83702618 20.76364779 -2.74018941 20.49109294 -8.140625 20.359375 C-11.81736343 19.89727126 -13.63840203 18.85020444 -16 16 C-16.33 15.01 -16.66 14.02 -17 13 C-14.50638429 14.20381448 -12.31856917 15.45428722 -10 17 C-9.01 16.67 -8.02 16.34 -7 16 C-7.804375 15.195625 -8.60875 14.39125 -9.4375 13.5625 C-13 10 -13 10 -13.4375 7.25 C-13 4 -13 4 -10.4375 1.0625 C-6.86822772 -1.57418332 -4.226408 -1.30043323 0 0 Z " fill="#6A6A6E" transform="translate(162,277)"/>
<path d="M0 0 C0.66 0.66 1.32 1.32 2 2 C1.71323678 5.15439542 1.04017097 7.88450845 0 10.875 C-1.19693408 14.61541901 -1.59624972 18.09708063 -2 22 C-3.32 21.67 -4.64 21.34 -6 21 C-7.75958316 9.3523245 -7.75958316 9.3523245 -5.25 4.875 C-3 2 -3 2 0 0 Z " fill="#4B4B4E" transform="translate(172,211)"/>
<path d="M0 0 C0.33 0 0.66 0 1 0 C1 1.65 1 3.3 1 5 C3.97 5 6.94 5 10 5 C11.4783226 7.95664519 11.06032783 10.74229737 11 14 C9 15 9 15 1 15 C0.67 20.28 0.34 25.56 0 31 C-0.33 31 -0.66 31 -1 31 C-1 28.69 -1 26.38 -1 24 C-3.31 24 -5.62 24 -8 24 C-8.66 25.32 -9.32 26.64 -10 28 C-9.67 24.7 -9.34 21.4 -9 18 C-8.34 18.99 -7.68 19.98 -7 21 C-4.43717258 21.72965366 -4.43717258 21.72965366 -2 22 C-1.67 19.36 -1.34 16.72 -1 14 C2.3 13.67 5.6 13.34 9 13 C9 10.69 9 8.38 9 6 C6.03 6 3.06 6 0 6 C0 4.02 0 2.04 0 0 Z " fill="#B36A5E" transform="translate(295,205)"/>
<path d="M0 0 C3.10551666 0 4.35261084 0.5393715 7 2 C7 2.66 7 3.32 7 4 C6.38125 4.04125 5.7625 4.0825 5.125 4.125 C4.42375 4.41375 3.7225 4.7025 3 5 C1.6954344 7.99615946 1.6954344 7.99615946 1 11 C-1.97 11 -4.94 11 -8 11 C-8.33 9.02 -8.66 7.04 -9 5 C-8.43410156 4.72285156 -7.86820313 4.44570313 -7.28515625 4.16015625 C-6.55167969 3.79792969 -5.81820312 3.43570312 -5.0625 3.0625 C-3.96615234 2.52302734 -3.96615234 2.52302734 -2.84765625 1.97265625 C-1.03750973 1.13628173 -1.03750973 1.13628173 0 0 Z " fill="#3A393E" transform="translate(201,258)"/>
<path d="M0 0 C0.66 0 1.32 0 2 0 C2 0.66 2 1.32 2 2 C3.65 1.67 5.3 1.34 7 1 C9.49118953 4.7367843 9.2065226 6.74451819 9.125 11.1875 C9.10695312 12.45980469 9.08890625 13.73210937 9.0703125 15.04296875 C9.03550781 16.50669922 9.03550781 16.50669922 9 18 C7.68 18 6.36 18 5 18 C3.78306124 15.56612247 3.68040104 13.58161154 3.4375 10.875 C3.35371094 9.96492187 3.26992187 9.05484375 3.18359375 8.1171875 C3.12300781 7.41851562 3.06242188 6.71984375 3 6 C2.01 5.67 1.02 5.34 0 5 C-0.33 4.01 -0.66 3.02 -1 2 C-0.67 1.34 -0.34 0.68 0 0 Z " fill="#C36E70" transform="translate(232,177)"/>
<path d="M0 0 C-0.33 1.65 -0.66 3.3 -1 5 C-2.010625 4.938125 -3.02125 4.87625 -4.0625 4.8125 C-9.18786557 5.05656503 -12.43643076 6.71821538 -17 9 C-17 6.36 -17 3.72 -17 1 C-11.02197063 -1.20927172 -6.26039609 -0.93213141 0 0 Z " fill="#3D3C41" transform="translate(190,209)"/>
<path d="M0 0 C0.66 1.32 1.32 2.64 2 4 C3.65 4 5.3 4 7 4 C6.67 5.32 6.34 6.64 6 8 C5.34 8 4.68 8 4 8 C3.34 10.31 2.68 12.62 2 15 C0 11.25 0 11.25 0 9 C-3.63 9 -7.26 9 -11 9 C-11.33 7.68 -11.66 6.36 -12 5 C-8.01803543 3.94595055 -5.01804691 4.15901344 -1 5 C-0.67 3.35 -0.34 1.7 0 0 Z " fill="#90585B" transform="translate(217,173)"/>
<path d="M0 0 C0.33 0 0.66 0 1 0 C1.33 2.64 1.66 5.28 2 8 C4.97 8 7.94 8 11 8 C11 10.31 11 12.62 11 15 C7.7 15.33 4.4 15.66 1 16 C0.67 16.99 0.34 17.98 0 19 C0 17.35 0 15.7 0 14 C0.66 13.67 1.32 13.34 2 13 C1.67 12.34 1.34 11.68 1 11 C-0.28687011 7.13938967 -0.13757618 4.05849717 0 0 Z " fill="#CC2E0B" transform="translate(293,203)"/>
<path d="M0 0 C1.41030314 6.73811499 0.66561666 13.19022959 0 20 C-0.99 20 -1.98 20 -3 20 C-3 19.01 -3 18.02 -3 17 C-3.33 18.65 -3.66 20.3 -4 22 C-4.33 22 -4.66 22 -5 22 C-5.08710289 18.89601022 -5.14042309 15.79233452 -5.1875 12.6875 C-5.21263672 11.80642578 -5.23777344 10.92535156 -5.26367188 10.01757812 C-5.27333984 9.17001953 -5.28300781 8.32246094 -5.29296875 7.44921875 C-5.3086792 6.66893311 -5.32438965 5.88864746 -5.34057617 5.0847168 C-4.8182622 1.88755625 -3.33053843 0 0 0 Z " fill="#B54F51" transform="translate(239,154)"/>
<path d="M0 0 C1.8871875 0.061875 1.8871875 0.061875 3.8125 0.125 C3.791875 0.929375 3.77125 1.73375 3.75 2.5625 C3.51616379 5.05854885 3.51616379 5.05854885 4.8125 6.125 C4.85313832 7.79117115 4.855221 9.45888095 4.8125 11.125 C4.4825 10.135 4.1525 9.145 3.8125 8.125 C0.8425 8.125 -2.1275 8.125 -5.1875 8.125 C-5.8475 6.145 -6.5075 4.165 -7.1875 2.125 C-4.09861478 0.06574319 -3.47814073 -0.1140374 0 0 Z " fill="#CE2E0D" transform="translate(282.1875,211.875)"/>
<path d="M0 0 C2 2 2 2 2.08203125 4.171875 C1.53649182 9.39007827 0.77200392 13.42016743 -2 18 C-2.99 17.67 -3.98 17.34 -5 17 C-5.6875 14.9375 -5.6875 14.9375 -6 13 C-5.34 13 -4.68 13 -4 13 C-3.94392578 11.84371094 -3.94392578 11.84371094 -3.88671875 10.6640625 C-3.82097656 9.66117188 -3.75523437 8.65828125 -3.6875 7.625 C-3.60048828 6.12839844 -3.60048828 6.12839844 -3.51171875 4.6015625 C-3.34285156 3.74304688 -3.17398438 2.88453125 -3 2 C-2.01 1.34 -1.02 0.68 0 0 Z " fill="#414044" transform="translate(229,222)"/>
<path d="M0 0 C1.67542976 0.28604898 3.34385343 0.61781233 5 1 C5.98320351 4.05885536 6.34808088 6.03422206 5 9 C3.09952046 10.84240933 1.10908848 12.38452797 -1 14 C-1.309375 13.05125 -1.61875 12.1025 -1.9375 11.125 C-2.87394742 8.13919592 -2.87394742 8.13919592 -4 6 C-3.34 6 -2.68 6 -2 6 C-1.855625 5.195625 -1.71125 4.39125 -1.5625 3.5625 C-1 1 -1 1 0 0 Z " fill="#4B4B50" transform="translate(279,288)"/>
<path d="M0 0 C2.5 1.8125 2.5 1.8125 4 4 C4 4.99 4 5.98 4 7 C0.59068103 8.13643966 -0.00335456 7.86747764 -3.1875 6.5625 C-3.90292969 6.27503906 -4.61835938 5.98757813 -5.35546875 5.69140625 C-5.89816406 5.46324219 -6.44085938 5.23507812 -7 5 C-7 4.01 -7 3.02 -7 2 C-7.66 2.66 -8.32 3.32 -9 4 C-11.625 4.625 -11.625 4.625 -14 5 C-9.58488727 0.43771684 -6.4664602 -0.94568785 0 0 Z " fill="#4A4A4D" transform="translate(161,270)"/>
<path d="M0 0 C0.99 0.33 1.98 0.66 3 1 C2.73147898 7.44450441 0.34253164 11.27735286 -4 16 C-4.66 16.33 -5.32 16.66 -6 17 C-5.835 16.21625 -5.67 15.4325 -5.5 14.625 C-4.9376293 12.11791961 -4.9376293 12.11791961 -5 10 C-5 6.60406522 -4.47834052 5.93380119 -2.5 3.3125 C-2.0359375 2.68988281 -1.571875 2.06726563 -1.09375 1.42578125 C-0.7328125 0.95527344 -0.371875 0.48476562 0 0 Z " fill="#242424" transform="translate(426,184)"/>
<path d="M0 0 C2.54055845 0.25552438 5.03852505 0.56707159 7.5625 0.9375 C8.27341797 1.03740234 8.98433594 1.13730469 9.71679688 1.24023438 C11.47856957 1.48853791 13.23938152 1.74364039 15 2 C14.01 2.495 14.01 2.495 13 3 C13 3.66 13 4.32 13 5 C14.32 5.33 15.64 5.66 17 6 C9.45326965 5.59722507 2.26026753 5.17808026 -5 3 C-4.360625 2.690625 -3.72125 2.38125 -3.0625 2.0625 C-1.06389179 1.1654837 -1.06389179 1.1654837 0 0 Z " fill="#5E5E5E" transform="translate(242,297)"/>
<path d="M0 0 C2.90802461 2.21928194 4.95312762 3.92969143 7 7 C6.75 9.625 6.75 9.625 6 12 C5.01 12.495 5.01 12.495 4 13 C3.30906104 15.57951874 3.30906104 15.57951874 2.875 18.5625 C2.70742187 19.57441406 2.53984375 20.58632812 2.3671875 21.62890625 C2.24601563 22.41136719 2.12484375 23.19382813 2 24 C1.34 24 0.68 24 0 24 C0.165 23.38125 0.33 22.7625 0.5 22.125 C1.20075317 17.74529271 1.07734251 13.42571011 1 9 C1.66 9 2.32 9 3 9 C2.505 8.071875 2.01 7.14375 1.5 6.1875 C0 3 0 3 0 0 Z " fill="#565558" transform="translate(223,211)"/>
<path d="M0 0 C0.66 0.33 1.32 0.66 2 1 C1.67 2.98 1.34 4.96 1 7 C1.66 7 2.32 7 3 7 C4.5 11.5 4.5 11.5 6 16 C3.625 15.6875 3.625 15.6875 1 15 C-1.06240906 11.90638642 -1.38991902 10.53301454 -1.75 6.9375 C-1.84796875 6.05964844 -1.9459375 5.18179687 -2.046875 4.27734375 C-2 2 -2 2 0 0 Z " fill="#323235" transform="translate(220,278)"/>
<path d="M0 0 C1.32 0.33 2.64 0.66 4 1 C4 1.66 4 2.32 4 3 C4.66 3.33 5.32 3.66 6 4 C4.02 4.99 4.02 4.99 2 6 C2.78130071 8.49552484 2.78130071 8.49552484 4 11 C4.99 11.33 5.98 11.66 7 12 C4.61426621 13.89213369 2.92824652 15.02391783 0 16 C0.33 13.03 0.66 10.06 1 7 C0.34 6.67 -0.32 6.34 -1 6 C-1.33 5.01 -1.66 4.02 -2 3 C-1.34 2.01 -0.68 1.02 0 0 Z " fill="#454448" transform="translate(190,257)"/>
<path d="M0 0 C-0.33 1.32 -0.66 2.64 -1 4 C-3.31 4.66 -5.62 5.32 -8 6 C-8.33 5.01 -8.66 4.02 -9 3 C-11.96404505 5.80804268 -14.44499019 8.18315774 -16 12 C-15.63166144 5.61546499 -15.63166144 5.61546499 -12.5625 2.625 C-7.98785332 -0.27599546 -5.37059778 -0.08662254 0 0 Z " fill="#232323" transform="translate(423,213)"/>
<path d="M0 0 C0.33 1.65 0.66 3.3 1 5 C-0.051875 5.0825 -1.10375 5.165 -2.1875 5.25 C-6.27047209 6.05320762 -8.0122727 7.19334709 -11 10 C-10.125 5.25 -10.125 5.25 -9 3 C-9.66 2.67 -10.32 2.34 -11 2 C-7.17010894 0.19769832 -4.21878192 -0.19622241 0 0 Z " fill="#191919" transform="translate(410,154)"/>
<path d="M0 0 C5.75 1.75 5.75 1.75 8 4 C7.69096017 5.33917261 7.34976758 6.67088318 7 8 C6.90269965 10.67319897 6.95539522 13.32371292 7 16 C7.66 16.33 8.32 16.66 9 17 C8.34 17.66 7.68 18.32 7 19 C6.92523438 18.31292969 6.85046875 17.62585938 6.7734375 16.91796875 C6.37023101 14.15481839 5.91821745 11.63987517 5 9 C2.06337328 6.77674321 2.06337328 6.77674321 -1 6 C-0.34 5.67 0.32 5.34 1 5 C0.67 3.35 0.34 1.7 0 0 Z " fill="#68676A" transform="translate(211,270)"/>
<path d="M0 0 C4 4.75 4 4.75 4 7 C4.61875 7.28875 5.2375 7.5775 5.875 7.875 C8 9 8 9 10 11 C7.9375 11.8125 7.9375 11.8125 5 12 C2.45310725 10.58973707 0.23357494 8.86023965 -2 7 C-1.125 1.125 -1.125 1.125 0 0 Z " fill="#343337" transform="translate(147,283)"/>
<path d="M0 0 C0 1.65 0 3.3 0 5 C-3.96 5 -7.92 5 -12 5 C-12 3.66666667 -12 2.33333333 -12 1 C-10.56274129 0.83126522 -9.12518162 0.66509263 -7.6875 0.5 C-6.88699219 0.4071875 -6.08648437 0.314375 -5.26171875 0.21875 C-3 0 -3 0 0 0 Z " fill="#10100F" transform="translate(313,199)"/>
<path d="M0 0 C0.99 0.33 1.98 0.66 3 1 C2.17812739 5.38332057 1.09845718 9.67940177 0 14 C-0.33 14 -0.66 14 -1 14 C-1 12.02 -1 10.04 -1 8 C-1.99 8.33 -2.98 8.66 -4 9 C-4.8125 7.3125 -4.8125 7.3125 -5 5 C-2.5625 2.25 -2.5625 2.25 0 0 Z " fill="#49494D" transform="translate(222,271)"/>
<path d="M0 0 C1.98 0.495 1.98 0.495 4 1 C3.01 1 2.02 1 1 1 C1 1.66 1 2.32 1 3 C10.405 2.505 10.405 2.505 20 2 C20 1.34 20 0.68 20 0 C21.65 0 23.3 0 25 0 C25.33 0.99 25.66 1.98 26 3 C23.39048764 4.30475618 21.47298715 4.11301572 18.5546875 4.09765625 C16.94013672 4.09282227 16.94013672 4.09282227 15.29296875 4.08789062 C14.16503906 4.07951172 13.03710938 4.07113281 11.875 4.0625 C10.73933594 4.05798828 9.60367187 4.05347656 8.43359375 4.04882812 C5.62234362 4.03701615 2.8111977 4.02054507 0 4 C0 2.68 0 1.36 0 0 Z " fill="#7C7C7C" transform="translate(367,258)"/>
<path d="M0 0 C-6.46446755 3.59137086 -11.08886797 2.82188884 -18 1 C-18 0.34 -18 -0.32 -18 -1 C-15.93906592 -1.223293 -13.8761161 -1.42802887 -11.8125 -1.625 C-10.66394531 -1.74101562 -9.51539063 -1.85703125 -8.33203125 -1.9765625 C-4.96669584 -2.00023426 -2.98778294 -1.47419799 0 0 Z " fill="#323135" transform="translate(273,301)"/>
<path d="M0 0 C1 1 2 2 3 3 C3.66 2.01 4.32 1.02 5 0 C5.99 0.33 6.98 0.66 8 1 C7.34 1.66 6.68 2.32 6 3 C6.66 4.32 7.32 5.64 8 7 C5.7252187 8.38111722 4.49828639 9.05694702 1.8125 8.75 C0 8 0 8 -1 6 C-0.71887936 3.99199544 -0.38932033 1.98985949 0 0 Z " fill="#C37B7D" transform="translate(224,174)"/>
<path d="M0 0 C0.33 0 0.66 0 1 0 C1.33 1.98 1.66 3.96 2 6 C2.99 6.33 3.98 6.66 5 7 C5 5.02 5 3.04 5 1 C5.33 1 5.66 1 6 1 C6.99 4.63 7.98 8.26 9 12 C6.69 12 4.38 12 2 12 C0.00214565 7.8794254 -0.17835515 4.54805635 0 0 Z " fill="#6D6D70" transform="translate(165,226)"/>
<path d="M0 0 C1.65 1.65 3.3 3.3 5 5 C3.68 6.65 2.36 8.3 1 10 C0.01 9.67 -0.98 9.34 -2 9 C-2 8.34 -2 7.68 -2 7 C-2.66 6.67 -3.32 6.34 -4 6 C-2.68 4.02 -1.36 2.04 0 0 Z " fill="#4E4E53" transform="translate(222,236)"/>
<path d="M0 0 C2.73625437 1.47336774 3.38708421 2.44772966 4.4375 5.3125 C-0.11055635 5.49085515 -3.4419254 5.31035435 -7.5625 3.3125 C-5.2177432 -0.20463519 -4.1547065 -1.11467735 0 0 Z " fill="#515154" transform="translate(237.5625,268.6875)"/>
<path d="M0 0 C-0.17474594 5.3297512 -0.17474594 5.3297512 -1 8 C-3.9375 10.0625 -3.9375 10.0625 -7 11 C-7.66 10.67 -8.32 10.34 -9 10 C-9 9.01 -9 8.02 -9 7 C-8.01 6.67 -7.02 6.34 -6 6 C-5.34 6.33 -4.68 6.66 -4 7 C-4 6.34 -4 5.68 -4 5 C-4.99 4.34 -5.98 3.68 -7 3 C-2.25 0 -2.25 0 0 0 Z " fill="#5E5E61" transform="translate(191,266)"/>
<path d="M0 0 C2 2 2 2 2.1875 4.875 C2.03404904 7.43251599 1.7487803 9.56646404 1 12 C-0.32 11.67 -1.64 11.34 -3 11 C-2.34 9.02 -1.68 7.04 -1 5 C-1.99 4.67 -2.98 4.34 -4 4 C-2.68 2.68 -1.36 1.36 0 0 Z " fill="#2F2F33" transform="translate(200,217)"/>
<path d="M0 0 C0 0.99 0 1.98 0 3 C-1.79090253 3.19466332 -3.58276505 3.38051213 -5.375 3.5625 C-6.87160156 3.71912109 -6.87160156 3.71912109 -8.3984375 3.87890625 C-11 4 -11 4 -13 3 C-13.33 3.66 -13.66 4.32 -14 5 C-14 3.68 -14 2.36 -14 1 C-9.27685687 0.22887459 -4.78478822 -0.09764874 0 0 Z " fill="#313035" transform="translate(216,210)"/>
<path d="M0 0 C4.29 0 8.58 0 13 0 C12.01 0.33 11.02 0.66 10 1 C10.33 1.99 10.66 2.98 11 4 C3.57142857 4.14285714 3.57142857 4.14285714 0 3 C0 2.01 0 1.02 0 0 Z " fill="#161616" transform="translate(65,190)"/>
<path d="M0 0 C0.99 0 1.98 0 3 0 C4.60725635 3.21451269 4.05748185 6.43612536 4 10 C2.68 9.67 1.36 9.34 0 9 C-0.87890625 2.84765625 -0.87890625 2.84765625 -1 1 C-0.67 0.67 -0.34 0.34 0 0 Z " fill="#302F34" transform="translate(166,223)"/>
<path d="M0 0 C1.32 0.33 2.64 0.66 4 1 C4.66 3.64 5.32 6.28 6 9 C4.68 8.67 3.36 8.34 2 8 C1.34 8.66 0.68 9.32 0 10 C0 6.7 0 3.4 0 0 Z " fill="#3C3C3C" transform="translate(407,244)"/>
<path d="M0 0 C0.66 0.66 1.32 1.32 2 2 C1.9765625 4.3828125 1.9765625 4.3828125 1.625 7.125 C1.51414063 8.03507813 1.40328125 8.94515625 1.2890625 9.8828125 C1.19367188 10.58148438 1.09828125 11.28015625 1 12 C-1.86214633 9.67450611 -2.91655233 8.59605477 -3.4375 4.875 C-3.2209375 3.451875 -3.2209375 3.451875 -3 2 C-2.01 1.34 -1.02 0.68 0 0 Z " fill="#414044" transform="translate(229,222)"/>
<path d="M0 0 C0 0.99 0 1.98 0 3 C-6.435 3.495 -6.435 3.495 -13 4 C-13 2.68 -13 1.36 -13 0 C-8.38926889 -1.29676812 -4.66159911 -0.71109139 0 0 Z " fill="#180402" transform="translate(299,198)"/>
<path d="M0 0 C0 1.98 0 3.96 0 6 C-1.32 6 -2.64 6 -4 6 C-4 8.97 -4 11.94 -4 15 C-4.33 15 -4.66 15 -5 15 C-5.06058594 14.39671875 -5.12117187 13.7934375 -5.18359375 13.171875 C-5.30927734 11.97304687 -5.30927734 11.97304687 -5.4375 10.75 C-5.51871094 9.96109375 -5.59992188 9.1721875 -5.68359375 8.359375 C-5.97634993 6.17635361 -6.42064419 4.1226818 -7 2 C-1.125 0 -1.125 0 0 0 Z " fill="#C17780" transform="translate(246,175)"/>
<path d="M0 0 C1.65 0 3.3 0 5 0 C5 1.32 5 2.64 5 4 C-2.92 4 -10.84 4 -19 4 C-19 3.67 -19 3.34 -19 3 C-9.1 2.505 -9.1 2.505 1 2 C0.67 1.34 0.34 0.68 0 0 Z " fill="#626363" transform="translate(272,199)"/>
<path d="M0 0 C0.66 0 1.32 0 2 0 C2 0.66 2 1.32 2 2 C2.66 2 3.32 2 4 2 C4 2.66 4 3.32 4 4 C4.66 4 5.32 4 6 4 C5.34 5.65 4.68 7.3 4 9 C3.67 8.34 3.34 7.68 3 7 C2.34 7 1.68 7 1 7 C1 6.34 1 5.68 1 5 C0.34 5 -0.32 5 -1 5 C-1.33 4.01 -1.66 3.02 -2 2 C-1.34 2 -0.68 2 0 2 C0 1.34 0 0.68 0 0 Z " fill="#737374" transform="translate(269,288)"/>
<path d="M0 0 C-0.99 0.495 -0.99 0.495 -2 1 C0.475 1.99 0.475 1.99 3 3 C0.08596738 4.94268841 -2.85808576 6.46395304 -6 8 C-6 5.36 -6 2.72 -6 0 C-3 -1 -3 -1 0 0 Z " fill="#666669" transform="translate(179,210)"/>
<path d="M0 0 C0.33 0.66 0.66 1.32 1 2 C1.99 2.33 2.98 2.66 4 3 C4.25 5.3125 4.25 5.3125 4 8 C1.984375 9.66796875 1.984375 9.66796875 0 11 C-0.19406478 9.35492782 -0.38007935 7.70890406 -0.5625 6.0625 C-0.66691406 5.14597656 -0.77132813 4.22945313 -0.87890625 3.28515625 C-0.91886719 2.53105469 -0.95882813 1.77695312 -1 1 C-0.67 0.67 -0.34 0.34 0 0 Z " fill="#2F2E33" transform="translate(274,294)"/>
<path d="M0 0 C0.99 0.33 1.98 0.66 3 1 C2.34 2.32 1.68 3.64 1 5 C1.66 5.33 2.32 5.66 3 6 C2.01 6.33 1.02 6.66 0 7 C0 7.99 0 8.98 0 10 C-1.98 9.34 -3.96 8.68 -6 8 C-5.0409375 7.6596875 -5.0409375 7.6596875 -4.0625 7.3125 C-1.73252567 6.15613334 -1.73252567 6.15613334 -1.3125 3.4375 C-1.1578125 2.2309375 -1.1578125 2.2309375 -1 1 C-0.67 0.67 -0.34 0.34 0 0 Z " fill="#6B6A6D" transform="translate(204,262)"/>
<path d="M0 0 C1.65 0 3.3 0 5 0 C5 0.66 5 1.32 5 2 C9.29 2.33 13.58 2.66 18 3 C18 3.33 18 3.66 18 4 C12.06 4 6.12 4 0 4 C0 2.68 0 1.36 0 0 Z " fill="#454545" transform="translate(333,199)"/>
<path d="M0 0 C2.97 0.33 5.94 0.66 9 1 C9 1.99 9 2.98 9 4 C2.25 4.125 2.25 4.125 0 3 C0 2.01 0 1.02 0 0 Z " fill="#565660" transform="translate(232,295)"/>
<path d="M0 0 C4.49652778 -0.36458333 4.49652778 -0.36458333 6.8125 1.3125 C8 3 8 3 8 6 C5.6875 5.8125 5.6875 5.8125 3 5 C1.1875 2.4375 1.1875 2.4375 0 0 Z " fill="#585859" transform="translate(261,284)"/>
<path d="M0 0 C0 0.66 0 1.32 0 2 C-2.12254855 2.38863565 -4.24816828 2.76053209 -6.375 3.125 C-8.15003906 3.43824219 -8.15003906 3.43824219 -9.9609375 3.7578125 C-10.96382812 3.83773437 -11.96671875 3.91765625 -13 4 C-13.66 3.34 -14.32 2.68 -15 2 C-9.87080814 -0.10428384 -5.4389165 -0.21755666 0 0 Z " fill="#848487" transform="translate(217,208)"/>
<path d="M0 0 C0 1.98 0 3.96 0 6 C-0.99 4.68 -1.98 3.36 -3 2 C-3.350625 2.515625 -3.70125 3.03125 -4.0625 3.5625 C-6 5 -6 5 -9.6875 4.6875 C-10.780625 4.460625 -11.87375 4.23375 -13 4 C-12 2 -12 2 -10.0390625 1.11328125 C-9.24242187 0.84902344 -8.44578125 0.58476562 -7.625 0.3125 C-6.83351563 0.04050781 -6.04203125 -0.23148438 -5.2265625 -0.51171875 C-3 -1 -3 -1 0 0 Z " fill="#545454" transform="translate(295,154)"/>
<path d="M0 0 C2.8670615 2.8670615 4 4.91591468 4 9 C2.35 8.67 0.7 8.34 -1 8 C-1.625 5.6875 -1.625 5.6875 -2 3 C-1.34 2.01 -0.68 1.02 0 0 Z " fill="#444446" transform="translate(222,285)"/>
<path d="M0 0 C0.66 0 1.32 0 2 0 C2.83796731 4.65537393 3.0161692 8.37078475 2 13 C1.67 13 1.34 13 1 13 C0.67 10.36 0.34 7.72 0 5 C-0.99 5 -1.98 5 -3 5 C-2 2 -2 2 0 0 Z " fill="#C7A4A6" transform="translate(237,154)"/>
<path d="M0 0 C3.63 0.33 7.26 0.66 11 1 C11 1.33 11 1.66 11 2 C8.36 2.33 5.72 2.66 3 3 C2.67 3.99 2.34 4.98 2 6 C-0.86724686 5.42655063 -1.8614515 5.1385485 -4 3 C-2.68 3 -1.36 3 0 3 C0 2.01 0 1.02 0 0 Z " fill="#635F61" transform="translate(299,198)"/>
<path d="M0 0 C1.32 0.33 2.64 0.66 4 1 C3.67 1.845625 3.34 2.69125 3 3.5625 C1.93894046 7.20989216 1.84890987 10.22274664 2 14 C1.34 13.67 0.68 13.34 0 13 C0 8.71 0 4.42 0 0 Z M2 10 C4 11 4 11 4 11 Z " fill="#706F74" transform="translate(192,216)"/>
<path d="M0 0 C0.99 0.33 1.98 0.66 3 1 C3 2.98 3 4.96 3 7 C1.35 6.67 -0.3 6.34 -2 6 C-1.34 4.02 -0.68 2.04 0 0 Z " fill="#0A0807" transform="translate(215,181)"/>
<path d="M0 0 C2.33944736 0.28730055 4.6739143 0.61936779 7 1 C6.67 1.99 6.34 2.98 6 4 C4.02 4.33 2.04 4.66 0 5 C-0.5625 3.0625 -0.5625 3.0625 -1 1 C-0.67 0.67 -0.34 0.34 0 0 Z " fill="#D39398" transform="translate(206,177)"/>
<path d="M0 0 C0.5534764 2.07553648 1 3.84365964 1 6 C-1.64 6 -4.28 6 -7 6 C-7 5.34 -7 4.68 -7 4 C-6.030625 3.525625 -5.06125 3.05125 -4.0625 2.5625 C-1.19522563 1.29806053 -1.19522563 1.29806053 0 0 Z " fill="#313135" transform="translate(154,271)"/>
<path d="M0 0 C-0.4979837 3.73487777 -0.87491756 5.81237635 -3 9 C-3.185625 7.576875 -3.185625 7.576875 -3.375 6.125 C-3.71687177 2.91332809 -3.71687177 2.91332809 -6 1 C-3 0 -3 0 0 0 Z " fill="#4E3839" transform="translate(221,179)"/>
<path d="M0 0 C1.98 0.99 3.96 1.98 6 3 C3.61426621 4.89213369 1.92824652 6.02391783 -1 7 C-0.67 4.69 -0.34 2.38 0 0 Z " fill="#4C4B4F" transform="translate(191,266)"/>
<path d="M0 0 C0.33 0 0.66 0 1 0 C1.05395478 1.62463842 1.09277195 3.24978541 1.125 4.875 C1.14820313 5.77992188 1.17140625 6.68484375 1.1953125 7.6171875 C1 10 1 10 -1 12 C-3.125 11.625 -3.125 11.625 -5 11 C-4.54625 10.67 -4.0925 10.34 -3.625 10 C-1.15680026 6.9622157 -0.81156856 3.80812939 0 0 Z " fill="#616163" transform="translate(202,219)"/>
<path d="M0 0 C0.99 0.33 1.98 0.66 3 1 C2.67 3.31 2.34 5.62 2 8 C0.68 7.01 -0.64 6.02 -2 5 C-1.34 3.35 -0.68 1.7 0 0 Z " fill="#535353" transform="translate(426,184)"/>
<path d="M0 0 C3.875 1.75 3.875 1.75 5 4 C3.02 4.99 1.04 5.98 -1 7 C-1.66 6.01 -2.32 5.02 -3 4 C-2.34 4 -1.68 4 -1 4 C-0.67 2.68 -0.34 1.36 0 0 Z " fill="#68686B" transform="translate(179,247)"/>
<path d="M0 0 C0.66 0.33 1.32 0.66 2 1 C1.05125 1.9075 0.1025 2.815 -0.875 3.75 C-3.14549867 6.00978877 -4.83296506 7.96570916 -6 11 C-5.63076923 4.6 -5.63076923 4.6 -2.4375 1.5625 C-1.633125 1.046875 -0.82875 0.53125 0 0 Z " fill="#545454" transform="translate(413,214)"/>
<path d="M0 0 C0.66 0 1.32 0 2 0 C2 0.66 2 1.32 2 2 C3.65 1.67 5.3 1.34 7 1 C7 2.32 7 3.64 7 5 C4.6568787 4.74438677 2.32156597 4.40729228 0 4 C-0.33 3.34 -0.66 2.68 -1 2 C-0.67 1.34 -0.34 0.68 0 0 Z " fill="#C95656" transform="translate(232,177)"/>
<path d="M0 0 C0.99 0.33 1.98 0.66 3 1 C2.34 1.66 1.68 2.32 1 3 C1.66 4.32 2.32 5.64 3 7 C1.68 7.33 0.36 7.66 -1 8 C-1 7.01 -1 6.02 -1 5 C-1.66 4.67 -2.32 4.34 -3 4 C-2.01 2.68 -1.02 1.36 0 0 Z " fill="#D68A8B" transform="translate(229,174)"/>
<path d="M0 0 C1.98 0.495 1.98 0.495 4 1 C4 2.32 4 3.64 4 5 C2.35 5 0.7 5 -1 5 C-0.67 3.35 -0.34 1.7 0 0 Z " fill="#3F3F42" transform="translate(274,306)"/>
<path d="M0 0 C-2.25 2.0625 -2.25 2.0625 -5 4 C-7.3125 3.75 -7.3125 3.75 -9 3 C-9 2.34 -9 1.68 -9 1 C-6.04335481 -0.4783226 -3.25770263 -0.06032783 0 0 Z " fill="#575759" transform="translate(235,268)"/>
<path d="M0 0 C0.66 0 1.32 0 2 0 C2 1.98 2 3.96 2 6 C3.98 6 5.96 6 8 6 C8 6.33 8 6.66 8 7 C5.69 7 3.38 7 1 7 C0.34 5.02 -0.32 3.04 -1 1 C-0.67 0.67 -0.34 0.34 0 0 Z " fill="#CC7F70" transform="translate(276,213)"/>
<path d="M0 0 C3.10551666 0 4.35261084 0.5393715 7 2 C7 2.66 7 3.32 7 4 C4.69 4 2.38 4 0 4 C0 2.68 0 1.36 0 0 Z " fill="#313132" transform="translate(201,258)"/>
<path d="M0 0 C0.99 0 1.98 0 3 0 C3 1.98 3 3.96 3 6 C2.34 5.34 1.68 4.68 1 4 C0.01 5.485 0.01 5.485 -1 7 C-1.66 6.67 -2.32 6.34 -3 6 C-2.01 4.02 -1.02 2.04 0 0 Z " fill="#525252" transform="translate(272,243)"/>
<path d="M0 0 C0.66 0 1.32 0 2 0 C2 2.97 2 5.94 2 9 C1.01 8.67 0.02 8.34 -1 8 C-0.67 5.36 -0.34 2.72 0 0 Z " fill="#C05335" transform="translate(294,219)"/>
<path d="M0 0 C0.66 0.66 1.32 1.32 2 2 C1.625 5.625 1.625 5.625 1 9 C0.67 9 0.34 9 0 9 C-0.33 7.02 -0.66 5.04 -1 3 C-3.97 2.505 -3.97 2.505 -7 2 C-7 1.67 -7 1.34 -7 1 C-3.625 0.375 -3.625 0.375 0 0 Z " fill="#943926" transform="translate(294,200)"/>
<path d="M0 0 C2.00720923 0.28674418 4.0085944 0.61866701 6 1 C4.68 1.33 3.36 1.66 2 2 C2 2.66 2 3.32 2 4 C-0.31 3.67 -2.62 3.34 -5 3 C-4.360625 2.690625 -3.72125 2.38125 -3.0625 2.0625 C-1.06389179 1.1654837 -1.06389179 1.1654837 0 0 Z " fill="#787878" transform="translate(242,297)"/>
<path d="M0 0 C0.99 0 1.98 0 3 0 C3 0.66 3 1.32 3 2 C2.01 2.66 1.02 3.32 0 4 C-0.72965366 6.56282742 -0.72965366 6.56282742 -1 9 C-1.99 8.67 -2.98 8.34 -4 8 C-4 7.34 -4 6.68 -4 6 C-3.34 6 -2.68 6 -2 6 C-1.855625 5.195625 -1.71125 4.39125 -1.5625 3.5625 C-1 1 -1 1 0 0 Z " fill="#7F7E83" transform="translate(279,288)"/>
<path d="M0 0 C1.98 0.99 3.96 1.98 6 3 C5.01 3.495 5.01 3.495 4 4 C4 4.66 4 5.32 4 6 C2.35 5.67 0.7 5.34 -1 5 C-0.34 4.34 0.32 3.68 1 3 C0.67 2.01 0.34 1.02 0 0 Z " fill="#7B7B7B" transform="translate(240,270)"/>
<path d="M0 0 C0.99 0.33 1.98 0.66 3 1 C1.68 2.65 0.36 4.3 -1 6 C-1.66 5.67 -2.32 5.34 -3 5 C-3 4.01 -3 3.02 -3 2 C-2.01 1.34 -1.02 0.68 0 0 Z " fill="#29282E" transform="translate(195,261)"/>
<path d="M0 0 C1.32 0 2.64 0 4 0 C3.34 1.65 2.68 3.3 2 5 C0.68 4.34 -0.64 3.68 -2 3 C-1.34 2.01 -0.68 1.02 0 0 Z " fill="#3C3C3C" transform="translate(305,253)"/>
<path d="M0 0 C3.3 0.33 6.6 0.66 10 1 C8.02 1.99 8.02 1.99 6 3 C5.01 2.67 4.02 2.34 3 2 C2.67 2.66 2.34 3.32 2 4 C2 3.34 2 2.68 2 2 C1.34 2 0.68 2 0 2 C0 1.34 0 0.68 0 0 Z " fill="#7D7D80" transform="translate(180,208)"/>
<path d="M0 0 C0.99 0 1.98 0 3 0 C3 0.99 3 1.98 3 3 C3.66 3.33 4.32 3.66 5 4 C3.35 5.32 1.7 6.64 0 8 C0.875 3.25 0.875 3.25 2 1 C1.34 0.67 0.68 0.34 0 0 Z " fill="#393939" transform="translate(399,156)"/>
<path d="M0 0 C0.66 1.32 1.32 2.64 2 4 C-1 5 -1 5 -3.1875 4.0625 C-3.785625 3.711875 -4.38375 3.36125 -5 3 C-3.35 2.01 -1.7 1.02 0 0 Z " fill="#2F2F32" transform="translate(235,268)"/>
<path d="M0 0 C1.65 1.65 3.3 3.3 5 5 C4.01 5.99 3.02 6.98 2 8 C0.74335022 5.09399739 0 3.20395416 0 0 Z " fill="#5F5F60" transform="translate(222,236)"/>
<path d="M0 0 C2 2 2 2 2.125 4.625 C2.08375 5.40875 2.0425 6.1925 2 7 C1.01 6.67 0.02 6.34 -1 6 C-1.6875 3.9375 -1.6875 3.9375 -2 2 C-1.34 2 -0.68 2 0 2 C0 1.34 0 0.68 0 0 Z " fill="#2E2D31" transform="translate(225,233)"/>
<path d="M0 0 C0.0825 0.61875 0.165 1.2375 0.25 1.875 C0.81258459 4.18437567 0.81258459 4.18437567 3.0625 5.25 C3.701875 5.4975 4.34125 5.745 5 6 C4.01 7.485 4.01 7.485 3 9 C3 8.01 3 7.02 3 6 C1.35 6 -0.3 6 -2 6 C-1.34 4.02 -0.68 2.04 0 0 Z " fill="#494141" transform="translate(213,183)"/>
<path d="M0 0 C0 1.98 0 3.96 0 6 C-0.33 5.34 -0.66 4.68 -1 4 C-2.98 4 -4.96 4 -7 4 C-5.68623885 1.3724777 -3.03378869 0 0 0 Z " fill="#CD979C" transform="translate(246,175)"/>
<path d="M0 0 C0.99 0.33 1.98 0.66 3 1 C2.67 2.98 2.34 4.96 2 7 C1.34 6.67 0.68 6.34 0 6 C0 5.34 0 4.68 0 4 C-0.66 4 -1.32 4 -2 4 C-2 3.34 -2 2.68 -2 2 C-1.34 2 -0.68 2 0 2 C0 1.34 0 0.68 0 0 Z " fill="#0A0506" transform="translate(224,163)"/>
<path d="M0 0 C2.31 0 4.62 0 7 0 C7 0.99 7 1.98 7 3 C4.69 2.67 2.38 2.34 0 2 C0 1.34 0 0.68 0 0 Z " fill="#29292B" transform="translate(255,300)"/>
<path d="M0 0 C2.86724686 0.57344937 3.8614515 0.8614515 6 3 C4.35 3.66 2.7 4.32 1 5 C0.67 3.35 0.34 1.7 0 0 Z " fill="#828282" transform="translate(251,276)"/>
<path d="M0 0 C1.65 0 3.3 0 5 0 C5.33 0.99 5.66 1.98 6 3 C5.01 3.33 4.02 3.66 3 4 C2.01 3.34 1.02 2.68 0 2 C0 1.34 0 0.68 0 0 Z " fill="#595959" transform="translate(387,258)"/>
<path d="M0 0 C0.99 0.33 1.98 0.66 3 1 C3.33 1.99 3.66 2.98 4 4 C1.69 3.67 -0.62 3.34 -3 3 C-2.01 2.01 -1.02 1.02 0 0 Z " fill="#313035" transform="translate(179,209)"/>
<path d="" fill="#FFFFFF" transform="translate(0,0)"/>
</svg>
